<?xml version="1.0" encoding="UTF-8"?>
<!-- Generator: visioncortex VTracer 0.6.3 -->
<svg version="1.1" xmlns="http://www.w3.org/2000/svg" width="1280" height="1280">
<path d="M0 0 C0.99 -0 0.99 -0 2.01 -0.01 C4.24 -0.01 6.47 -0.01 8.7 -0.01 C10.32 -0.01 11.94 -0.01 13.56 -0.01 C18.03 -0.02 22.51 -0.02 26.98 -0.02 C31.84 -0.02 36.69 -0.02 41.55 -0.03 C51.2 -0.04 60.84 -0.04 70.49 -0.05 C82.04 -0.05 93.59 -0.06 105.14 -0.07 C133.05 -0.09 160.97 -0.1 188.89 -0.11 C202.09 -0.11 215.29 -0.12 228.49 -0.12 C272.95 -0.14 317.42 -0.15 361.88 -0.16 C365.43 -0.16 368.97 -0.16 372.52 -0.16 C373.57 -0.16 373.57 -0.16 374.65 -0.16 C381.77 -0.16 388.9 -0.16 396.02 -0.17 C397.45 -0.17 398.88 -0.17 400.31 -0.17 C446.18 -0.17 492.06 -0.2 537.94 -0.23 C570.9 -0.25 603.86 -0.27 636.82 -0.28 C637.5 -0.28 638.18 -0.28 638.88 -0.28 C653.76 -0.29 668.64 -0.29 683.52 -0.29 C689.51 -0.29 695.49 -0.29 701.48 -0.29 C703.45 -0.29 703.45 -0.29 705.45 -0.29 C726.55 -0.29 747.65 -0.31 768.75 -0.33 C789.95 -0.35 811.15 -0.35 832.36 -0.34 C844.96 -0.34 857.56 -0.35 870.16 -0.37 C878.58 -0.38 886.99 -0.38 895.4 -0.37 C900.2 -0.36 905 -0.36 909.79 -0.38 C914.16 -0.39 918.52 -0.39 922.89 -0.37 C924.46 -0.37 926.02 -0.37 927.59 -0.38 C937.71 -0.45 947.27 -0.07 955.44 6.57 C959.61 11.91 961.56 16 961.56 22.77 C961.57 23.71 961.57 24.64 961.57 25.61 C961.57 26.64 961.57 27.66 961.57 28.72 C961.57 30.37 961.57 30.37 961.57 32.05 C961.58 35.75 961.58 39.46 961.58 43.17 C961.58 45.84 961.58 48.51 961.59 51.18 C961.59 57.77 961.6 64.37 961.6 70.96 C961.6 78.86 961.6 86.75 961.61 94.65 C961.63 113.74 961.63 132.83 961.64 151.91 C961.64 160.95 961.64 169.98 961.65 179.01 C961.66 209.93 961.67 240.85 961.67 271.77 C961.68 273.71 961.68 275.66 961.68 277.6 C961.68 279.54 961.68 281.49 961.68 283.44 C961.68 287.34 961.68 291.25 961.68 295.15 C961.68 296.12 961.68 297.09 961.68 298.09 C961.68 329.46 961.7 360.83 961.72 392.21 C961.75 425.38 961.76 458.55 961.76 491.73 C961.76 495.37 961.76 499.01 961.76 502.66 C961.76 503.56 961.76 504.45 961.76 505.38 C961.76 519.8 961.77 534.22 961.79 548.65 C961.8 563.16 961.81 577.67 961.8 592.17 C961.79 600.79 961.8 609.4 961.81 618.01 C961.82 623.77 961.82 629.54 961.81 635.3 C961.81 638.58 961.81 641.86 961.82 645.13 C961.95 686.94 961.95 686.94 951.92 697.77 C950.37 699.13 950.37 699.13 947.44 701.13 C946.82 701.56 946.2 702 945.56 702.44 C936.62 705.33 925.84 701.48 917.56 697.88 C907.52 692.35 900.23 683.52 896.64 672.72 C893.54 661.34 894.02 649.85 894.06 638.15 C894.06 635.7 894.05 633.26 894.04 630.81 C894.04 625.5 894.03 620.2 894.04 614.89 C894.05 607 894.05 599.11 894.04 591.22 C894.02 577.95 894.02 564.67 894.03 551.4 C894.03 533.27 894.02 515.15 894 497.03 C893.99 488.58 893.99 480.14 893.98 471.69 C893.98 470.85 893.98 470 893.98 469.13 C893.96 449.02 893.95 428.92 893.95 408.81 C893.95 407.93 893.95 407.05 893.95 406.15 C893.94 391.87 893.94 377.6 893.94 363.32 C893.93 349.93 893.93 336.54 893.93 323.14 C893.93 322.26 893.93 321.38 893.93 320.48 C893.92 300.38 893.91 280.29 893.89 260.2 C893.89 259.36 893.89 258.51 893.89 257.64 C893.88 249.22 893.88 240.8 893.87 232.38 C893.85 214.27 893.84 196.16 893.85 178.06 C893.85 164.87 893.85 151.68 893.83 138.49 C893.82 130.65 893.82 122.8 893.83 114.96 C893.84 109.12 893.83 103.28 893.82 97.43 C893.82 95.06 893.82 92.69 893.83 90.31 C893.84 87.11 893.83 83.9 893.81 80.69 C893.82 79.75 893.83 78.82 893.84 77.85 C893.82 76.58 893.82 76.58 893.81 75.28 C893.81 74.54 893.81 73.81 893.81 73.05 C893.31 70.46 892.61 69.62 890.44 68.13 C887.75 67.68 887.75 67.68 884.64 67.75 C883.42 67.75 882.21 67.74 880.95 67.73 C879.59 67.74 878.23 67.74 876.86 67.75 C875.42 67.75 873.97 67.74 872.53 67.74 C868.53 67.73 864.53 67.73 860.53 67.74 C856.19 67.75 851.85 67.74 847.51 67.73 C839.89 67.72 832.28 67.72 824.66 67.73 C813.34 67.74 802.01 67.74 790.68 67.73 C770.46 67.71 750.24 67.71 730.02 67.72 C712.32 67.73 694.62 67.73 676.92 67.73 C675.17 67.73 675.17 67.73 673.37 67.73 C668.61 67.73 663.86 67.72 659.1 67.72 C614.43 67.71 569.76 67.72 525.1 67.74 C485.38 67.75 445.67 67.75 405.95 67.74 C361.37 67.72 316.78 67.72 272.2 67.72 C267.45 67.73 262.7 67.73 257.95 67.73 C256.78 67.73 255.61 67.73 254.41 67.73 C236.72 67.73 219.03 67.73 201.34 67.72 C181.23 67.71 161.13 67.71 141.02 67.73 C129.76 67.74 118.49 67.74 107.23 67.73 C99.72 67.72 92.2 67.73 84.69 67.74 C80.4 67.75 76.12 67.75 71.83 67.74 C67.93 67.73 64.04 67.73 60.15 67.75 C58.74 67.75 57.33 67.75 55.93 67.74 C54.03 67.73 52.13 67.74 50.23 67.75 C49.18 67.75 48.12 67.75 47.04 67.75 C44.46 67.96 44.46 67.96 42.6 69.21 C40.8 72.19 41.06 74.78 41.06 78.24 C41.05 79.34 41.05 79.34 41.05 80.47 C41.04 82.95 41.05 85.44 41.06 87.92 C41.06 89.72 41.05 91.51 41.05 93.31 C41.03 98.28 41.04 103.26 41.05 108.23 C41.06 113.63 41.05 119.03 41.04 124.43 C41.03 133.9 41.03 143.37 41.04 152.84 C41.05 166.93 41.04 181.02 41.04 195.1 C41.02 218.8 41.02 242.49 41.03 266.18 C41.03 266.9 41.03 267.62 41.03 268.37 C41.03 269.09 41.03 269.81 41.03 270.56 C41.04 292.57 41.04 314.58 41.04 336.59 C41.04 338.06 41.04 339.54 41.04 341.01 C41.03 346.93 41.03 352.84 41.03 358.76 C41.03 375.3 41.03 391.84 41.03 408.39 C41.03 409.14 41.03 409.89 41.03 410.67 C41.03 434.68 41.03 458.7 41.04 482.71 C41.04 483.88 41.04 483.88 41.04 485.07 C41.04 497.73 41.04 510.38 41.05 523.03 C41.06 573.22 41.06 623.41 41.05 673.6 C41.04 686.25 41.04 698.9 41.04 711.55 C41.04 712.71 41.04 712.71 41.03 713.91 C41.03 737.89 41.03 761.88 41.03 785.87 C41.03 787 41.03 787 41.03 788.15 C41.03 804.68 41.03 821.2 41.03 837.72 C41.03 843.63 41.03 849.55 41.04 855.46 C41.04 856.93 41.04 858.4 41.04 859.87 C41.04 881.88 41.04 903.88 41.03 925.89 C41.03 926.97 41.03 926.97 41.03 928.08 C41.03 928.8 41.03 929.52 41.03 930.26 C41.02 954.54 41.02 978.82 41.04 1003.1 C41.05 1017.11 41.05 1031.12 41.04 1045.13 C41.03 1054.47 41.03 1063.81 41.05 1073.15 C41.05 1078.49 41.06 1083.82 41.05 1089.15 C41.04 1094 41.04 1098.84 41.06 1103.68 C41.06 1105.43 41.06 1107.18 41.05 1108.93 C41.04 1111.29 41.05 1113.65 41.06 1116.01 C41.06 1117.98 41.06 1117.98 41.06 1119.99 C41.19 1123.07 41.19 1123.07 42.72 1125.05 C45.86 1127.02 49.6 1126.53 53.19 1126.5 C54.1 1126.51 55.01 1126.51 55.95 1126.51 C59.03 1126.52 62.11 1126.51 65.19 1126.5 C67.4 1126.5 69.62 1126.51 71.84 1126.51 C77.96 1126.52 84.08 1126.51 90.19 1126.5 C96.11 1126.49 102.02 1126.5 107.93 1126.51 C120.03 1126.52 132.14 1126.52 144.24 1126.51 C160.77 1126.5 177.3 1126.51 193.84 1126.52 C201.54 1126.53 209.24 1126.53 216.94 1126.54 C217.71 1126.54 218.48 1126.54 219.27 1126.54 C237.63 1126.56 255.99 1126.56 274.34 1126.56 C275.55 1126.56 275.55 1126.56 276.78 1126.56 C294.7 1126.57 312.63 1126.57 330.55 1126.57 C337.87 1126.57 345.18 1126.56 352.49 1126.56 C353.29 1126.56 354.09 1126.56 354.92 1126.56 C373.23 1126.56 391.54 1126.57 409.85 1126.58 C410.61 1126.58 411.38 1126.58 412.18 1126.58 C419.86 1126.59 427.55 1126.6 435.24 1126.6 C451.75 1126.62 468.26 1126.63 484.77 1126.61 C496.81 1126.6 508.85 1126.6 520.89 1126.62 C527.42 1126.63 533.94 1126.63 540.46 1126.61 C546.43 1126.6 552.41 1126.61 558.38 1126.62 C560.54 1126.63 562.7 1126.62 564.86 1126.61 C588.4 1126.51 588.4 1126.51 597.87 1133.38 C600.97 1136.7 602.69 1139.98 604.44 1144.13 C604.83 1145.06 605.22 1145.99 605.62 1146.94 C606.26 1148.66 606.86 1150.39 607.44 1152.13 C609.31 1152.86 609.31 1152.86 611.56 1153.32 C618.57 1155.45 621.88 1160.45 625.44 1166.57 C626.95 1171.95 626.89 1176.3 624.3 1181.34 C620.19 1187.39 615.61 1190.2 608.53 1191.77 C592.58 1194.47 576.5 1194.28 560.39 1194.28 C557.95 1194.28 555.51 1194.28 553.07 1194.29 C547.08 1194.3 541.09 1194.3 535.11 1194.3 C527.93 1194.31 520.75 1194.31 513.58 1194.32 C496.24 1194.34 478.91 1194.35 461.58 1194.36 C453.37 1194.37 445.17 1194.37 436.97 1194.38 C408.87 1194.4 380.78 1194.41 352.69 1194.42 C350.93 1194.42 349.16 1194.42 347.4 1194.42 C346.09 1194.42 346.09 1194.42 344.76 1194.42 C340.33 1194.42 335.91 1194.42 331.48 1194.42 C330.17 1194.42 330.17 1194.42 328.82 1194.42 C300.33 1194.43 271.83 1194.46 243.34 1194.49 C213.19 1194.52 183.05 1194.54 152.9 1194.55 C149.59 1194.55 146.28 1194.55 142.98 1194.55 C142.16 1194.55 141.35 1194.55 140.51 1194.55 C127.4 1194.55 114.3 1194.57 101.19 1194.59 C88.02 1194.61 74.85 1194.61 61.69 1194.6 C53.87 1194.6 46.04 1194.6 38.22 1194.62 C32.38 1194.64 26.54 1194.63 20.7 1194.62 C18.34 1194.62 15.98 1194.62 13.62 1194.63 C10.4 1194.65 7.19 1194.64 3.98 1194.62 C2.61 1194.64 2.61 1194.64 1.21 1194.65 C-6.73 1194.57 -14.32 1192.77 -20.56 1187.69 C-25.7 1181.11 -26.71 1176.46 -26.69 1168.22 C-26.69 1167.41 -26.69 1166.6 -26.7 1165.77 C-26.7 1163.04 -26.7 1160.3 -26.69 1157.57 C-26.7 1155.6 -26.7 1153.62 -26.7 1151.64 C-26.71 1146.17 -26.71 1140.7 -26.7 1135.23 C-26.7 1129.29 -26.71 1123.35 -26.71 1117.42 C-26.72 1107 -26.72 1096.58 -26.72 1086.16 C-26.72 1074.98 -26.73 1063.79 -26.73 1052.61 C-26.73 1051.9 -26.73 1051.2 -26.73 1050.47 C-26.73 1047.6 -26.73 1044.72 -26.74 1041.85 C-26.75 1007.81 -26.76 973.77 -26.76 939.72 C-26.77 922.78 -26.77 905.83 -26.77 888.88 C-26.79 834.54 -26.8 780.2 -26.8 725.86 C-26.8 723.26 -26.8 720.66 -26.8 718.06 C-26.8 712.85 -26.8 707.64 -26.8 702.43 C-26.8 696.33 -26.8 690.23 -26.8 684.13 C-26.8 682.39 -26.8 680.64 -26.8 678.9 C-26.81 622.81 -26.82 566.73 -26.85 510.65 C-26.86 470.35 -26.88 430.06 -26.88 389.77 C-26.88 388.94 -26.88 388.11 -26.88 387.25 C-26.88 369.07 -26.89 350.89 -26.89 332.71 C-26.89 326.2 -26.89 319.69 -26.89 313.19 C-26.89 311.57 -26.89 309.95 -26.89 308.33 C-26.89 282.52 -26.9 256.72 -26.91 230.91 C-26.93 204.92 -26.93 178.93 -26.92 152.94 C-26.92 149.35 -26.92 145.76 -26.92 142.17 C-26.92 141.47 -26.92 140.77 -26.92 140.04 C-26.92 128.89 -26.92 117.74 -26.94 106.58 C-26.95 95.62 -26.95 84.66 -26.94 73.71 C-26.93 67.84 -26.93 61.97 -26.94 56.11 C-26.95 50.78 -26.95 45.45 -26.94 40.11 C-26.94 38.19 -26.94 36.27 -26.95 34.35 C-26.96 31.75 -26.95 29.15 -26.94 26.54 C-26.94 25.8 -26.95 25.06 -26.96 24.29 C-26.89 17.95 -25.19 12.88 -21.94 7.38 C-15.9 1.66 -8.07 0.01 0 0 Z " fill="#000000" transform="translate(172.56274038553238,42.87119883298874)"/>
<path d="M0 0 C0.56 0.81 1.13 1.63 1.71 2.46 C4.55 5.61 6.77 6.33 10.81 7.56 C11.46 7.77 12.12 7.97 12.79 8.18 C16.21 9.24 19.64 10.18 23.11 11.06 C23.77 11.23 24.44 11.4 25.12 11.58 C26.96 12.04 28.81 12.47 30.66 12.91 C34.33 14.11 36.9 15.72 40 18 C40.8 18.58 41.59 19.15 42.41 19.75 C43.51 20.58 43.51 20.58 44.62 21.44 C45.36 21.99 46.09 22.55 46.85 23.12 C49 25 49 25 50.69 27.38 C54 31.14 58.01 33.16 62.38 35.56 C71.95 40.92 79.69 45.3 85.38 55 C88.84 60.67 93.47 64.15 99.12 67.5 C105.86 71.62 108.91 77.35 112.51 84.17 C114.3 87.57 116.2 90.89 118.12 94.22 C119 96 119 96 119 98 C119.56 98.22 120.11 98.45 120.69 98.68 C123.7 100.4 125.66 102.56 128 105.12 C128.85 106.04 129.69 106.95 130.56 107.88 C135.51 114.2 137.72 120.77 139.56 128.5 C141.03 134.52 142.72 140.23 145 146 C149.29 146.33 153.58 146.66 158 147 C158 213.66 158 280.32 158 349 C153.71 349.33 149.42 349.66 145 350 C144.24 352.19 143.49 354.37 142.75 356.56 C142.41 357.57 142.41 357.57 142.06 358.6 C140.47 363.34 139.22 368.08 138.06 372.94 C136.41 379.23 134.4 383.28 130 388 C128.85 389.34 128.85 389.34 127.68 390.7 C123.24 395.82 123.24 395.82 121 398 C120.34 398 119.68 398 119 398 C118.76 398.83 118.51 399.66 118.26 400.51 C113.69 413.16 106.36 425.48 94.2 431.67 C88.94 434.85 85.53 439.99 82.44 445.19 C78.37 451.9 72.61 454.93 65.83 458.51 C62.43 460.3 59.11 462.2 55.78 464.12 C54 465 54 465 52 465 C51.78 465.56 51.55 466.11 51.32 466.69 C49.6 469.7 47.44 471.66 44.88 474 C43.96 474.85 43.05 475.69 42.12 476.56 C35.8 481.51 29.23 483.72 21.5 485.56 C15.48 487.03 9.77 488.72 4 491 C3.67 495.29 3.34 499.58 3 504 C-63.66 504 -130.32 504 -199 504 C-199.33 499.71 -199.66 495.42 -200 491 C-202.19 490.24 -204.37 489.49 -206.56 488.75 C-207.23 488.52 -207.91 488.29 -208.6 488.06 C-213.34 486.47 -218.08 485.22 -222.94 484.06 C-229.23 482.41 -233.28 480.4 -238 476 C-238.89 475.24 -239.78 474.47 -240.7 473.68 C-245.82 469.24 -245.82 469.24 -248 467 C-248 466.34 -248 465.68 -248 465 C-248.83 464.76 -249.66 464.51 -250.51 464.26 C-263.16 459.69 -275.48 452.36 -281.67 440.2 C-284.85 434.94 -289.99 431.53 -295.19 428.44 C-301.9 424.37 -304.93 418.61 -308.51 411.83 C-310.3 408.43 -312.2 405.11 -314.12 401.78 C-315 400 -315 400 -315 398 C-315.73 397.78 -316.46 397.55 -317.21 397.32 C-320.63 395.7 -322.21 393.82 -324.56 390.88 C-325.31 389.96 -326.05 389.05 -326.82 388.12 C-331.36 381.62 -333.69 375.23 -335.5 367.56 C-338.52 354.66 -338.52 354.66 -347 345 C-375.11 312.5 -363.3 232.56 -360.42 192.78 C-359.18 177.84 -356.7 161.37 -346 150 C-344.78 149.16 -344.78 149.16 -343.54 148.29 C-340.39 145.45 -339.67 143.23 -338.44 139.19 C-338.13 138.21 -338.13 138.21 -337.82 137.21 C-336.76 133.79 -335.82 130.36 -334.94 126.89 C-334.77 126.23 -334.6 125.56 -334.42 124.88 C-333.96 123.04 -333.53 121.19 -333.09 119.34 C-331.89 115.67 -330.28 113.11 -328 110 C-327.41 109.19 -326.82 108.38 -326.22 107.55 C-325.65 106.81 -325.08 106.07 -324.5 105.31 C-323.93 104.57 -323.37 103.82 -322.78 103.05 C-320.99 100.99 -319.29 99.48 -317 98 C-316.34 98 -315.68 98 -315 98 C-314.74 97.13 -314.48 96.26 -314.21 95.37 C-312.99 91.97 -311.49 89.15 -309.62 86.06 C-307.66 82.78 -305.74 79.53 -304 76.12 C-300.65 70.89 -296.25 67.68 -290.94 64.56 C-284.68 60.77 -280.93 55.32 -277.47 48.99 C-272.35 42.04 -264.03 38.52 -256.61 34.55 C-251.2 31.56 -247.68 28.95 -244 24 C-241.82 22.02 -241.82 22.02 -239.69 20.38 C-238.99 19.83 -238.29 19.28 -237.57 18.71 C-231.23 14.5 -224.94 12.24 -217.56 10.5 C-204.95 7.68 -204.95 7.68 -195.41 -0.42 C-184.28 -12.88 -162.79 -13.82 -147.36 -14.78 C-23.23 -21.24 -23.23 -21.24 0 0 Z M-141.44 58.25 C-142.26 59.17 -142.26 59.17 -143.1 60.1 C-153.43 70.43 -171.57 72.61 -185.19 75.56 C-193.87 77.41 -193.87 77.41 -200.39 82.98 C-200.84 83.73 -201.29 84.48 -201.75 85.25 C-205.44 91.38 -211.01 94.35 -217 98 C-218.59 99.05 -220.17 100.12 -221.75 101.19 C-223.85 102.6 -225.94 103.96 -228.12 105.23 C-236.48 110.1 -240.43 116.56 -245.14 124.86 C-255.11 141.68 -255.11 141.68 -262.5 145.19 C-270.02 150.64 -270.86 160.66 -272.41 169.17 C-274.77 181.68 -278.28 196.72 -288.57 205.09 C-292.04 209.25 -292.27 213.03 -292.81 218.31 C-292.99 219.87 -292.99 219.87 -293.16 221.46 C-294.99 239.81 -294.94 258.67 -292.94 277 C-292.85 277.91 -292.77 278.81 -292.68 279.75 C-291.89 285.68 -289.94 288.96 -285.72 293.2 C-276.83 302.48 -274.25 317.11 -272 329.31 C-270.1 341.24 -270.1 341.24 -263 350.46 C-261.47 351.38 -259.94 352.29 -258.4 353.19 C-250.05 359.48 -244.57 371.47 -239.65 380.47 C-236.15 385.85 -231.77 388.97 -226.19 391.94 C-221.41 394.57 -216.93 397.32 -212.66 400.72 C-210.84 402.18 -210.84 402.18 -208 403.75 C-204.3 406.53 -201.97 409.8 -199.32 413.56 C-193.75 419.42 -186.78 420.68 -179.06 421.88 C-165.44 424.24 -149.16 427.48 -139.84 438.57 C-135.97 441.88 -132.77 442.24 -127.81 442.81 C-126.87 442.93 -125.93 443.04 -124.97 443.16 C-106.31 445.18 -86.81 445.12 -68.19 442.81 C-67.31 442.71 -66.44 442.61 -65.53 442.51 C-60.12 441.7 -57.64 440.3 -54 436 C-42.56 426.83 -26.99 422.96 -12.69 421.12 C-6.58 420.17 -1.74 418.01 3 414 C4.35 412.06 5.43 410.08 6.55 408.01 C9.6 403.78 14.57 401.57 19 399 C20.94 397.76 22.88 396.51 24.81 395.25 C27.65 393.43 30.31 391.86 33.38 390.44 C36.91 388.5 38.54 386.19 41 383 C41.73 382.32 41.73 382.32 42.47 381.63 C44.41 379.57 45.51 377.39 46.81 374.88 C50.18 368.56 53.87 362.63 58.38 357.06 C60.21 355.18 60.21 355.18 60 353 C60.56 352.73 61.11 352.46 61.69 352.19 C62.45 351.8 63.21 351.4 64 351 C64.8 350.65 65.61 350.3 66.44 349.94 C73.74 344.41 75.08 335.27 76.5 326.75 C78.92 313.59 81.7 298.89 92.57 289.86 C95.98 285.85 96.26 282.32 96.81 277.19 C96.93 276.2 97.04 275.2 97.16 274.18 C99.06 255.91 98.95 237.06 96.81 218.81 C96.71 217.88 96.61 216.95 96.51 215.99 C95.71 210.27 94.42 207.92 90 204 C85.38 198.13 82.55 192.09 80.31 185 C80.01 184.09 79.72 183.18 79.41 182.25 C77.36 175.77 76.05 169.36 75.07 162.65 C74.18 157.01 72.33 152.61 69 148 C65.32 148.25 63.52 148.46 60.91 151.16 C58.87 154.2 58.03 156.65 57.12 160.19 C54.87 167.93 52.02 174.97 45.38 179.88 C41.19 183.1 40.46 187.12 39 192.04 C36.28 200.09 30.22 204.75 23.68 209.82 C19.18 213.47 15.8 216.73 13.44 222.06 C11.71 225.74 10.07 228.27 7 231 C7 231.66 7 232.32 7 233 C6.42 233.21 5.85 233.41 5.25 233.62 C2.77 234.91 2.77 234.91 1.25 237.75 C-0.8 240.72 -1.95 241.81 -4.81 243.75 C-10.69 247.94 -14.05 253.79 -17.75 259.88 C-21.98 266.81 -25.96 271.64 -33 275.75 C-38.56 279.92 -42.17 285.96 -45 292.25 C-47.55 297.64 -51.73 300.94 -57.06 303.44 C-63.86 307.05 -66.49 312.73 -69.09 319.7 C-71.68 326.22 -76 328.24 -82 331 C-87.48 334.05 -89.96 336.18 -91.81 342.25 C-94.2 349.06 -97.34 353.81 -103.69 357.44 C-110.61 360.18 -118.46 359.38 -125.76 359.09 C-127.67 359.01 -129.57 358.97 -131.48 358.94 C-139.07 358.62 -145.2 356.29 -152 353 C-152.73 352.7 -153.46 352.4 -154.22 352.09 C-157.09 350.34 -157.74 348.02 -158.54 344.85 C-159.35 342.06 -160.18 340.28 -162 338 C-165.05 336.45 -168.01 335.29 -171.22 334.17 C-177.13 332.09 -181.28 329.1 -186 325 C-188.31 323.28 -190.63 321.57 -192.96 319.87 C-195 318 -195 318 -196.86 315.04 C-199.38 311.46 -201.67 310.07 -205.5 308 C-206.11 307.66 -206.72 307.33 -207.35 306.98 C-212.29 304.29 -217.35 301.84 -222.48 299.52 C-228.5 295.89 -230.55 289.85 -233.25 283.69 C-236.16 277.26 -238.87 272 -244.37 267.38 C-246 266 -246 266 -248 263 C-247.91 259.45 -247.14 258.16 -244.75 255.5 C-243.84 254.67 -242.93 253.85 -242 253 C-237.77 249.12 -234.97 245.06 -232.06 240.19 C-221.48 222.91 -221.48 222.91 -216 221 C-208.3 220.67 -202.38 223.67 -196.19 227.94 C-194 230 -194 230 -192.69 232.56 C-190.23 236.11 -186.95 236.75 -183 238 C-170.79 241.89 -161.16 247.75 -152.94 257.69 C-148.39 262.94 -143.81 267.1 -137 269 C-131.46 268.87 -126.22 267.26 -120.98 265.59 C-119 265 -119 265 -116.02 264.46 C-113.53 263.97 -112.02 263.55 -110 262 C-108.38 259.12 -107.27 256.25 -106.16 253.14 C-103.1 244.84 -98.98 240.59 -91.32 236.37 C-85.82 233.12 -83.78 228.63 -81.12 223.06 C-78.86 218.36 -76.58 215.12 -72.72 211.65 C-70.3 209.33 -68.51 206.67 -66.65 203.89 C-65 202 -65 202 -62.13 200.21 C-58.34 197.53 -56.43 194.7 -54 190.81 C-53.57 190.14 -53.13 189.48 -52.68 188.79 C-50.85 185.97 -49.08 183.13 -47.38 180.23 C-44.15 174.86 -40.93 172.57 -35.46 169.58 C-29.16 165.54 -25.6 159 -23.02 152.14 C-20.12 146.06 -16.11 143.66 -10.25 140.94 C-9.23 140.45 -9.23 140.45 -8.2 139.95 C-5.42 138.62 -2.63 137.29 0.17 136.01 C4.18 134.12 6.96 132.49 9.69 128.88 C14.13 123.5 14.13 123.5 18 123 C21.14 123.92 23.26 124.81 25.04 127.67 C25.37 128.32 25.71 128.96 26.06 129.62 C28.41 133.73 31.58 136.34 35.38 139.06 C35.92 139.47 36.46 139.87 37.02 140.29 C40.18 142.46 41.9 143 45.77 142.85 C49.45 141.88 50.82 141.11 53 138 C53.98 134.51 54.4 132.78 52.71 129.51 C52.08 128.72 51.46 127.94 50.81 127.12 C48.44 124.01 46.46 121.14 44.88 117.56 C43.23 114.03 41.47 112.83 38 111 C37.75 110.38 37.49 109.77 37.23 109.13 C35.43 106.02 33.07 105.2 29.88 103.62 C25.19 101.21 20.95 98.75 16.84 95.46 C15.55 94.44 14.23 93.47 12.88 92.54 C9.41 90.13 6.92 88.32 5.12 84.44 C2.66 79.52 -2.1 77.95 -7 76 C-10.84 74.95 -14.71 74.24 -18.62 73.56 C-44.96 68.45 -44.96 68.45 -54.69 57.95 C-64.46 49.69 -85.36 51.62 -97.69 51.69 C-98.47 51.69 -99.25 51.69 -100.05 51.7 C-122.07 50.54 -122.07 50.54 -141.44 58.25 Z " fill="#000000" transform="translate(1122,776)"/>
<path d="M0 0 C1.01 -0 2.02 -0.01 3.06 -0.02 C6.46 -0.03 9.86 -0.02 13.26 -0.01 C15.72 -0.02 18.17 -0.02 20.63 -0.03 C25.98 -0.04 31.33 -0.05 36.67 -0.04 C44.63 -0.03 52.58 -0.05 60.53 -0.06 C75.56 -0.08 90.59 -0.09 105.62 -0.09 C117.22 -0.08 128.83 -0.09 140.43 -0.1 C142.1 -0.1 143.77 -0.1 145.43 -0.1 C146.26 -0.1 147.09 -0.1 147.94 -0.1 C148.77 -0.1 149.6 -0.1 150.45 -0.1 C151.28 -0.1 152.11 -0.1 152.97 -0.1 C176.33 -0.12 199.68 -0.13 223.04 -0.12 C223.92 -0.12 224.8 -0.12 225.71 -0.12 C230.17 -0.12 234.64 -0.12 239.1 -0.12 C240.43 -0.12 240.43 -0.12 241.79 -0.12 C243.58 -0.12 245.37 -0.12 247.17 -0.12 C275.06 -0.11 302.96 -0.13 330.85 -0.16 C362.19 -0.19 393.52 -0.21 424.86 -0.21 C428.2 -0.21 431.54 -0.21 434.88 -0.21 C436.12 -0.21 436.12 -0.21 437.37 -0.21 C449.8 -0.21 462.22 -0.22 474.64 -0.24 C488.76 -0.26 502.89 -0.26 517.02 -0.24 C524.92 -0.23 532.83 -0.24 540.73 -0.26 C546.64 -0.28 552.54 -0.27 558.44 -0.24 C560.83 -0.24 563.22 -0.24 565.6 -0.26 C568.85 -0.28 572.09 -0.26 575.34 -0.24 C576.27 -0.25 577.2 -0.27 578.15 -0.28 C585.94 -0.17 592.59 2.28 598.3 7.7 C602.88 15.58 603.34 22.29 603.25 31.31 C603.23 33.31 603.25 35.32 603.27 37.32 C603.24 45.78 603.01 53.33 597.67 60.2 C591.93 64.66 585.93 67.5 578.59 67.51 C577.74 67.52 576.89 67.52 576.01 67.52 C574.61 67.52 574.61 67.52 573.18 67.52 C572.19 67.52 571.19 67.52 570.16 67.52 C566.79 67.53 563.42 67.53 560.05 67.53 C557.62 67.53 555.19 67.54 552.77 67.54 C546.77 67.55 540.78 67.55 534.78 67.56 C527.61 67.56 520.43 67.57 513.25 67.58 C495.9 67.6 478.56 67.61 461.21 67.62 C453 67.62 444.79 67.63 436.59 67.63 C408.5 67.65 380.41 67.67 352.32 67.67 C350.56 67.67 348.79 67.67 347.03 67.67 C346.16 67.67 345.28 67.67 344.38 67.67 C339.95 67.68 335.52 67.68 331.09 67.68 C330.21 67.68 329.33 67.68 328.42 67.68 C299.91 67.69 271.4 67.71 242.88 67.74 C212.74 67.78 182.6 67.8 152.46 67.8 C149.15 67.8 145.84 67.8 142.53 67.8 C141.72 67.8 140.9 67.8 140.07 67.8 C126.95 67.8 113.84 67.82 100.73 67.84 C87.55 67.86 74.37 67.87 61.19 67.86 C53.36 67.85 45.53 67.86 37.7 67.88 C31.85 67.89 26.01 67.89 20.16 67.87 C17.79 67.87 15.43 67.88 13.06 67.89 C9.85 67.9 6.63 67.89 3.42 67.88 C2.04 67.89 2.04 67.89 0.64 67.91 C-7.3 67.82 -14.84 66 -21.14 61.01 C-27.32 52.89 -27.38 45.69 -27.44 35.81 C-27.45 34.45 -27.47 33.09 -27.5 31.74 C-27.69 22.89 -27.77 13.91 -21.8 6.78 C-15.2 0.79 -8.48 -0.06 0 0 Z " fill="#000000" transform="translate(352.14135456085205,273.6168899536133)"/>
<path d="M0 0 C1.71 -0 3.41 -0.01 5.12 -0.02 C9.79 -0.03 14.45 -0.02 19.12 -0.01 C24.17 0 29.21 -0.01 34.25 -0.02 C44.12 -0.03 53.99 -0.02 63.86 -0.01 C75.36 0.01 86.85 0.01 98.35 0 C118.86 -0 139.38 0.01 159.89 0.03 C179.79 0.06 199.69 0.07 219.6 0.06 C241.27 0.04 262.95 0.04 284.63 0.06 C286.94 0.06 289.25 0.06 291.56 0.06 C293.27 0.06 293.27 0.06 295.01 0.06 C303.02 0.07 311.03 0.07 319.05 0.06 C328.81 0.06 338.58 0.06 348.34 0.08 C353.32 0.09 358.3 0.1 363.28 0.09 C367.85 0.08 372.41 0.09 376.97 0.11 C378.62 0.11 380.27 0.11 381.91 0.1 C391.37 0.07 399.61 0.16 407.99 5.19 C415.13 12.74 415.42 21.56 415.47 31.42 C415.49 32.84 415.51 34.25 415.54 35.67 C415.72 44.67 415.86 53.76 409.87 61.1 C401.55 68.8 391.05 67.93 380.52 67.89 C378.81 67.89 377.1 67.9 375.39 67.91 C370.69 67.92 365.99 67.92 361.3 67.91 C356.23 67.9 351.16 67.92 346.09 67.93 C336.17 67.94 326.24 67.94 316.32 67.94 C308.25 67.93 300.18 67.94 292.11 67.94 C290.39 67.94 290.39 67.94 288.64 67.94 C286.3 67.95 283.97 67.95 281.64 67.95 C259.77 67.96 237.89 67.96 216.02 67.95 C196.01 67.94 176 67.95 155.99 67.97 C135.44 68 114.9 68.01 94.35 68 C82.81 68 71.28 68 59.74 68.02 C49.92 68.03 40.1 68.03 30.28 68.01 C25.27 68.01 20.26 68 15.25 68.02 C10.67 68.03 6.08 68.03 1.49 68.01 C-0.17 68 -1.82 68.01 -3.48 68.02 C-13.5 68.08 -21.66 67.76 -29.7 61.13 C-36.46 52.78 -36.06 44.67 -36.13 34.38 C-36.18 32.45 -36.18 32.45 -36.22 30.49 C-36.28 21.33 -35.22 14.09 -29.7 6.63 C-20.53 -0.15 -10.91 -0.07 0 0 Z " fill="#000000" transform="translate(539.8210601806641,631.4987945556641)"/>
<path d="M0 0 C1.63 -0.01 1.63 -0.01 3.3 -0.01 C6.93 -0.03 10.57 -0.02 14.2 -0.01 C16.81 -0.01 19.42 -0.02 22.03 -0.02 C28.38 -0.04 34.73 -0.03 41.09 -0.02 C46.26 -0.02 51.43 -0.02 56.6 -0.02 C57.33 -0.02 58.07 -0.02 58.83 -0.02 C60.33 -0.02 61.83 -0.02 63.32 -0.02 C77.37 -0.03 91.41 -0.02 105.45 -0.01 C117.47 0.01 129.48 0 141.5 -0.01 C155.47 -0.03 169.45 -0.03 183.43 -0.02 C184.92 -0.02 186.42 -0.02 187.92 -0.02 C189.02 -0.02 189.02 -0.02 190.15 -0.02 C195.29 -0.02 200.44 -0.02 205.59 -0.03 C211.89 -0.04 218.19 -0.03 224.48 -0.02 C227.69 -0.01 230.89 -0.01 234.1 -0.02 C245.34 -0.04 256.51 -0.02 267.66 1.59 C268.39 1.69 269.13 1.79 269.89 1.89 C276.63 3.04 282.34 6.23 286.87 11.38 C289.57 15.2 291.07 17.58 290.87 22.32 C288.97 28.95 284.54 33.52 278.99 37.38 C277.8 37.86 276.6 38.33 275.37 38.82 C269.35 41.61 267.33 46.6 264.68 52.44 C261.77 58.45 257.68 61.87 251.54 64.38 C246.75 65.73 242.06 66.11 237.11 66.49 C236.05 66.57 234.99 66.66 233.9 66.74 C222.62 67.58 211.36 67.68 200.05 67.67 C197.77 67.68 195.49 67.68 193.21 67.69 C187.1 67.71 180.98 67.71 174.87 67.72 C171.04 67.72 167.21 67.72 163.38 67.73 C150.69 67.74 137.99 67.75 125.3 67.75 C124.62 67.75 123.94 67.75 123.24 67.75 C122.56 67.75 121.88 67.75 121.18 67.75 C110.11 67.75 99.05 67.77 87.98 67.8 C76.57 67.83 65.15 67.84 53.74 67.84 C47.35 67.84 40.96 67.84 34.57 67.87 C28.58 67.88 22.58 67.88 16.59 67.87 C14.39 67.87 12.2 67.87 10.01 67.88 C-14.6 68.01 -14.6 68.01 -21.95 61.72 C-29.6 53.93 -29.5 44.36 -29.45 34.07 C-29.47 32.81 -29.49 31.56 -29.51 30.27 C-29.5 22.05 -28.97 13.45 -23.7 6.71 C-16.88 0.44 -8.73 -0.06 0 0 Z " fill="#000000" transform="translate(533.0084991455078,785.6190490722656)"/>
<path d="M0 0 C1.76 -0.01 3.52 -0.01 5.28 -0.02 C10.03 -0.04 14.79 -0.04 19.55 -0.03 C23.54 -0.03 27.52 -0.03 31.51 -0.04 C40.92 -0.05 50.33 -0.05 59.75 -0.04 C69.43 -0.03 79.1 -0.04 88.78 -0.07 C97.11 -0.09 105.45 -0.1 113.78 -0.09 C118.75 -0.09 123.71 -0.09 128.68 -0.11 C133.36 -0.13 138.04 -0.12 142.71 -0.1 C144.42 -0.1 146.12 -0.1 147.83 -0.11 C161.05 -0.19 175.79 0.18 186.43 9.04 C187.62 10.4 187.62 10.4 187.62 12.4 C188.17 12.63 188.73 12.86 189.3 13.09 C193.3 15.36 196.16 18.02 197.62 22.4 C196.6 24.86 195.54 27.13 194.3 29.47 C193.98 30.1 193.66 30.74 193.33 31.4 C191.96 34.07 190.75 36.27 188.62 38.4 C187.74 41.69 186.99 44.97 186.29 48.29 C184.91 54.35 182.57 59.49 177.3 63.15 C176.51 63.73 176.51 63.73 175.69 64.33 C170.29 67.14 164.77 67.7 158.78 67.67 C158.02 67.68 157.26 67.68 156.48 67.69 C153.96 67.7 151.43 67.7 148.91 67.69 C147.09 67.7 145.27 67.71 143.45 67.71 C138.53 67.73 133.6 67.74 128.68 67.74 C125.6 67.74 122.52 67.74 119.44 67.75 C108.68 67.77 97.93 67.78 87.17 67.77 C77.16 67.77 67.15 67.79 57.14 67.83 C48.53 67.85 39.92 67.86 31.31 67.86 C26.18 67.86 21.04 67.87 15.91 67.89 C11.07 67.91 6.24 67.91 1.41 67.89 C-0.36 67.89 -2.13 67.9 -3.89 67.91 C-24.32 68.04 -24.32 68.04 -32.32 60.72 C-37.64 52.17 -37.88 43.87 -37.82 33.97 C-37.84 32.71 -37.86 31.45 -37.88 30.15 C-37.88 21.93 -37.27 14.17 -31.89 7.58 C-23 -0.86 -11.44 -0.03 0 0 Z " fill="#000000" transform="translate(541.383056640625,938.595947265625)"/>
<path d="M0 0 C1.15 -0.01 1.15 -0.01 2.32 -0.02 C4.85 -0.03 7.39 -0.04 9.92 -0.04 C11.69 -0.05 13.45 -0.05 15.22 -0.06 C18.92 -0.07 22.63 -0.08 26.33 -0.08 C31.06 -0.08 35.79 -0.11 40.52 -0.14 C44.17 -0.16 47.82 -0.16 51.47 -0.16 C53.21 -0.17 54.96 -0.17 56.7 -0.19 C75.54 -0.32 75.54 -0.32 84.16 4.85 C91.3 12.4 91.58 21.22 91.64 31.08 C91.65 32.5 91.67 33.91 91.7 35.33 C91.89 44.33 92.03 53.42 86.04 60.76 C80.15 66.21 72.8 67.61 65.07 67.57 C64.28 67.57 63.5 67.58 62.69 67.59 C60.12 67.6 57.55 67.6 54.98 67.59 C53.17 67.6 51.37 67.6 49.57 67.61 C45.8 67.62 42.03 67.62 38.26 67.61 C33.45 67.6 28.64 67.62 23.83 67.65 C20.1 67.66 16.38 67.66 12.66 67.66 C10.89 67.66 9.12 67.66 7.34 67.68 C-13 67.8 -13 67.8 -20.25 61.86 C-27.17 54.43 -27.16 45.34 -27.1 35.81 C-27.09 33.73 -27.12 31.66 -27.15 29.58 C-27.2 20.39 -26.22 13.48 -20.28 6.29 C-13.81 1.05 -8.08 0.01 0 0 Z " fill="#000000" transform="translate(351.655029296875,631.8388671875)"/>
<path d="M0 0 C0.74 -0.01 1.49 -0.01 2.25 -0.02 C4.71 -0.04 7.17 -0.05 9.63 -0.06 C10.47 -0.07 11.31 -0.07 12.18 -0.07 C16.65 -0.09 21.12 -0.11 25.58 -0.12 C30.17 -0.13 34.76 -0.16 39.35 -0.2 C42.9 -0.23 46.45 -0.24 50 -0.24 C51.69 -0.25 53.38 -0.26 55.07 -0.28 C65.72 -0.39 75.83 -0.36 84.56 6.55 C90.74 14.67 90.8 21.87 90.86 31.75 C90.87 33.11 90.89 34.47 90.92 35.82 C91.11 44.67 91.19 53.65 85.22 60.78 C79.3 66.14 72.95 67.63 65.21 67.6 C64.01 67.61 64.01 67.61 62.78 67.62 C60.14 67.65 57.49 67.65 54.85 67.65 C53 67.65 51.15 67.66 49.31 67.67 C45.43 67.68 41.56 67.68 37.69 67.68 C32.75 67.67 27.81 67.7 22.88 67.74 C19.06 67.77 15.24 67.77 11.42 67.77 C9.6 67.77 7.78 67.78 5.96 67.8 C-5.1 67.89 -14.38 67.93 -22.88 59.86 C-27.46 51.98 -27.92 45.27 -27.83 36.25 C-27.81 34.25 -27.83 32.24 -27.85 30.24 C-27.82 21.78 -27.59 14.23 -22.25 7.36 C-15.22 1.9 -8.82 0.03 0 0 Z " fill="#000000" transform="translate(352.439697265625,938.822998046875)"/>
<path d="M0 0 C1.21 -0.01 1.21 -0.01 2.44 -0.03 C5.08 -0.05 7.72 -0.05 10.36 -0.05 C12.21 -0.06 14.06 -0.06 15.91 -0.07 C19.78 -0.09 23.65 -0.09 27.52 -0.08 C32.46 -0.08 37.4 -0.11 42.34 -0.15 C46.16 -0.17 49.97 -0.17 53.79 -0.17 C55.61 -0.17 57.43 -0.18 59.25 -0.2 C70.31 -0.3 79.59 -0.33 88.09 7.73 C92.67 15.61 93.13 22.32 93.04 31.35 C93.03 33.35 93.05 35.35 93.06 37.36 C93.04 45.82 92.8 53.37 87.47 60.23 C80.44 65.7 74.03 67.56 65.21 67.6 C64.47 67.6 63.73 67.61 62.96 67.62 C60.5 67.64 58.04 67.65 55.59 67.66 C54.74 67.66 53.9 67.67 53.03 67.67 C48.56 67.69 44.1 67.71 39.63 67.72 C35.04 67.73 30.45 67.76 25.86 67.8 C22.31 67.83 18.76 67.83 15.21 67.84 C13.52 67.84 11.83 67.85 10.14 67.87 C-0.51 67.98 -10.62 67.96 -19.35 61.04 C-25.53 52.93 -25.58 45.72 -25.64 35.85 C-25.65 34.49 -25.67 33.13 -25.7 31.77 C-25.9 22.93 -25.97 13.95 -20.01 6.82 C-14.09 1.45 -7.73 -0.03 0 0 Z " fill="#000000" transform="translate(350.346923828125,785.580078125)"/>
</svg>
