<?xml version="1.0" encoding="UTF-8"?>
<!-- Generator: visioncortex VTracer 0.6.3 -->
<svg version="1.1" xmlns="http://www.w3.org/2000/svg" width="1280" height="1280">
<path d="M0 0 C1.69 -0 3.39 -0.01 5.08 -0.01 C9.75 -0.02 14.41 -0.02 19.07 -0.01 C24.14 -0.01 29.21 -0.02 34.28 -0.02 C43.17 -0.03 52.06 -0.04 60.95 -0.03 C74.16 -0.03 87.38 -0.04 100.6 -0.05 C125.58 -0.07 150.56 -0.08 175.54 -0.08 C178.29 -0.08 181.05 -0.08 183.8 -0.08 C184.49 -0.08 185.17 -0.08 185.87 -0.08 C201.03 -0.08 216.18 -0.08 231.33 -0.09 C237.57 -0.09 243.81 -0.09 250.05 -0.09 C250.74 -0.09 251.43 -0.09 252.14 -0.09 C291.65 -0.11 331.16 -0.12 370.68 -0.11 C372.15 -0.11 373.63 -0.11 375.11 -0.11 C381.79 -0.11 388.46 -0.11 395.14 -0.11 C398.11 -0.11 401.09 -0.11 404.07 -0.11 C405.56 -0.11 407.05 -0.11 408.54 -0.11 C455.65 -0.11 502.75 -0.13 549.86 -0.15 C561.73 -0.16 573.6 -0.17 585.47 -0.17 C586.2 -0.18 586.93 -0.18 587.68 -0.18 C610.21 -0.19 632.74 -0.2 655.26 -0.2 C655.97 -0.2 656.68 -0.2 657.41 -0.2 C672.94 -0.2 688.47 -0.2 704 -0.2 C709.55 -0.2 715.11 -0.2 720.67 -0.2 C722.05 -0.2 723.43 -0.2 724.81 -0.2 C746.83 -0.2 768.85 -0.21 790.87 -0.23 C813.66 -0.25 836.46 -0.25 859.25 -0.24 C872.4 -0.23 885.54 -0.23 898.68 -0.25 C907.46 -0.26 916.23 -0.26 925.01 -0.25 C930.01 -0.24 935.01 -0.24 940.02 -0.25 C944.57 -0.27 949.13 -0.26 953.68 -0.25 C955.31 -0.24 956.95 -0.25 958.58 -0.26 C972.91 -0.35 986.86 1.16 998.24 10.75 C1000.78 12.46 1002.78 13.01 1005.76 13.65 C1006.79 13.89 1007.81 14.12 1008.87 14.36 C1011 14.83 1013.13 15.29 1015.26 15.74 C1023.65 17.68 1031.91 20.52 1037.29 27.63 C1041.98 33.71 1049.68 37.12 1056.25 40.82 C1060.29 43.43 1062.18 47.72 1064.47 51.82 C1067.24 56.58 1070.05 59.93 1074.35 63.32 C1082.85 70.72 1084.98 80.94 1087.43 91.46 C1088.92 97.32 1090.88 101.09 1095.61 105.08 C1100.42 110.7 1101.12 118.96 1102.1 126.07 C1102.22 126.88 1102.34 127.7 1102.47 128.53 C1103.98 139.06 1104.62 149.52 1104.6 160.15 C1104.6 161.86 1104.6 161.86 1104.61 163.6 C1104.61 167.41 1104.61 171.21 1104.61 175.01 C1104.61 177.78 1104.61 180.54 1104.61 183.3 C1104.62 189.29 1104.62 195.29 1104.62 201.29 C1104.62 210.2 1104.62 219.12 1104.63 228.04 C1104.64 244.89 1104.64 261.75 1104.64 278.6 C1104.64 291.62 1104.64 304.64 1104.65 317.66 C1104.65 321.41 1104.65 325.16 1104.65 328.91 C1104.65 329.84 1104.65 330.77 1104.65 331.73 C1104.66 357.95 1104.66 384.16 1104.66 410.38 C1104.66 411.37 1104.66 412.36 1104.66 413.38 C1104.66 418.38 1104.66 423.39 1104.66 428.4 C1104.66 429.89 1104.66 429.89 1104.66 431.41 C1104.66 433.42 1104.66 435.44 1104.66 437.45 C1104.66 468.73 1104.67 500.02 1104.68 531.3 C1104.69 566.47 1104.7 601.63 1104.7 636.8 C1104.7 640.55 1104.7 644.3 1104.7 648.05 C1104.7 648.98 1104.7 649.9 1104.7 650.85 C1104.7 665.7 1104.71 680.55 1104.72 695.4 C1104.73 710.32 1104.73 725.25 1104.72 740.18 C1104.72 749.04 1104.72 757.9 1104.73 766.77 C1104.73 772.69 1104.73 778.62 1104.73 784.55 C1104.72 787.92 1104.72 791.3 1104.73 794.67 C1104.82 842.63 1104.82 842.63 1093.41 854.38 C1091.47 856.26 1091.47 856.26 1089.88 857.55 C1087.32 860.66 1086.57 864.74 1085.46 868.54 C1083.51 874.85 1081.06 879.79 1075.04 883.01 C1070.36 885.91 1068.88 888.92 1066.71 893.85 C1064.09 898.94 1060.09 901.64 1054.85 903.63 C1050.83 905.57 1049.79 907.36 1047.81 911.22 C1044.43 916.37 1039.59 918.21 1033.91 919.94 C1033.25 920.16 1032.59 920.37 1031.91 920.59 C1029.31 921.42 1026.73 922.2 1024.07 922.79 C1023.54 922.95 1023.02 923.1 1022.47 923.26 C1021.77 924.57 1021.11 925.91 1020.47 927.26 C1014.68 934.73 1004.97 936.6 996.02 937.85 C981.48 939.52 966.82 939.41 952.21 939.4 C950.01 939.41 947.81 939.41 945.62 939.41 C939.62 939.42 933.62 939.43 927.63 939.43 C921.14 939.43 914.66 939.44 908.17 939.45 C896.95 939.47 885.73 939.48 874.5 939.49 C857.51 939.5 840.52 939.52 823.53 939.55 C816.7 939.56 809.86 939.57 803.03 939.58 C802.28 939.58 801.52 939.58 800.74 939.58 C782.7 939.61 764.67 939.63 746.64 939.65 C745.86 939.65 745.07 939.65 744.26 939.65 C725.86 939.68 707.46 939.7 689.07 939.71 C687.88 939.72 687.88 939.72 686.67 939.72 C682.68 939.72 678.68 939.73 674.69 939.73 C673.9 939.73 673.11 939.73 672.3 939.73 C670.71 939.73 669.12 939.73 667.52 939.74 C641.19 939.76 614.85 939.8 588.52 939.84 C584.8 939.84 581.08 939.85 577.36 939.85 C576.62 939.86 575.89 939.86 575.14 939.86 C563.38 939.88 551.61 939.89 539.85 939.89 C528.03 939.9 516.21 939.91 504.38 939.94 C497.98 939.95 491.58 939.96 485.18 939.95 C479.32 939.95 473.45 939.96 467.59 939.98 C465.48 939.98 463.36 939.98 461.24 939.98 C449.81 939.97 438.77 940.33 427.47 942.26 C427.34 943.02 427.21 943.78 427.07 944.57 C426.14 948.74 424.4 952.03 420.71 954.39 C418 955.75 415.26 956.96 412.42 958.04 C407.94 959.92 406.07 961.64 403.66 965.88 C398.32 974.35 386.75 979.16 377.47 982.26 C375.79 983.95 375.79 983.95 374.16 986.01 C367.15 994.22 359.97 997.86 349.47 1000.26 C349.29 1001.29 349.1 1002.32 348.91 1003.38 C347.52 1008.16 344.56 1010.6 340.47 1013.26 C337.53 1014.74 334.52 1016.01 331.47 1017.26 C327.5 1019.01 326.22 1020.68 324.22 1024.38 C319.1 1032.58 308 1036.77 299.13 1039.74 C295.28 1041.34 294.29 1042.11 292.41 1045.69 C288.28 1052.54 282.94 1054.33 275.49 1056.55 C272.82 1057.49 270.89 1058.43 269.59 1061.03 C269.32 1061.7 269.06 1062.38 268.79 1063.07 C265.95 1068.97 261.3 1070.96 255.53 1073.61 C249.42 1076.47 245.41 1078.95 241.23 1084.24 C235.31 1091.04 227.06 1094.96 218.47 1097.26 C217.48 1097.26 216.49 1097.26 215.47 1097.26 C215.31 1098.27 215.14 1099.28 214.97 1100.32 C213.47 1105.48 209.85 1108.36 205.47 1111.26 C202.93 1112.4 200.36 1113.36 197.73 1114.3 C193.46 1116.11 191.12 1119.01 189.02 1123.04 C185.88 1127.81 180.49 1129.83 175.54 1132.32 C166.7 1136.72 166.7 1136.72 159.47 1143.26 C154.44 1148.93 149.55 1151.09 142.41 1153.19 C135.88 1155.12 131.84 1156.77 127.77 1162.49 C125 1166.27 121.39 1167.11 116.96 1167.81 C104.2 1169.29 87.55 1170.58 75.97 1164.38 C73.71 1162.46 72 1160.8 70.47 1158.26 C70.47 1157.6 70.47 1156.94 70.47 1156.26 C67.84 1155.19 65.2 1154.16 62.54 1153.18 C51.37 1148.91 51.37 1148.91 48.47 1143.26 C47.29 1140.34 46.13 1137.42 44.99 1134.5 C43.25 1130.32 41.41 1127.93 37.85 1125.19 C31.07 1119.9 29.82 1111.7 28.68 1103.52 C28.21 1098.36 28.34 1093.16 28.35 1087.99 C28.35 1086.65 28.34 1085.31 28.34 1083.96 C28.34 1081.08 28.34 1078.2 28.34 1075.33 C28.33 1070.75 28.32 1066.18 28.31 1061.61 C28.3 1060.84 28.3 1060.06 28.3 1059.26 C28.29 1057.68 28.29 1056.1 28.28 1054.51 C28.25 1043.88 28.22 1033.25 28.22 1022.62 C28.22 1015.43 28.21 1008.25 28.17 1001.06 C28.15 997.27 28.14 993.48 28.16 989.69 C28.2 973.97 28.13 959.14 22.47 944.26 C21.9 944.24 21.33 944.22 20.74 944.2 C6.69 943.74 -7.23 942.77 -21.2 941.21 C-24.18 940.88 -27.17 940.56 -30.16 940.25 C-58.99 937.14 -58.99 937.14 -66.53 930.26 C-69.53 926.1 -69.53 926.1 -69.53 923.26 C-70.16 923.09 -70.78 922.92 -71.43 922.74 C-81.15 919.99 -87.25 917.25 -93.53 909.26 C-96.09 906.5 -98.36 904.36 -101.53 902.32 C-107.25 898.39 -110.24 893.64 -112.53 887.26 C-112.53 886.27 -112.53 885.28 -112.53 884.26 C-113.41 884.03 -114.3 883.8 -115.21 883.57 C-120.75 881.38 -123.86 877.45 -126.53 872.26 C-127.55 868.92 -128.36 865.52 -129.21 862.13 C-131.2 854.66 -133.29 848.82 -138.6 843 C-144.09 835.19 -145.24 826.13 -145.76 816.83 C-145.84 815.65 -145.91 814.48 -145.99 813.28 C-146.76 800.24 -146.8 787.21 -146.77 774.15 C-146.77 771.43 -146.78 768.7 -146.78 765.98 C-146.79 760.11 -146.79 754.24 -146.78 748.37 C-146.77 739.64 -146.77 730.91 -146.77 722.18 C-146.78 707.49 -146.78 692.79 -146.77 678.09 C-146.76 663.55 -146.76 649.01 -146.76 634.46 C-146.76 633.55 -146.76 632.65 -146.76 631.71 C-146.76 628.02 -146.76 624.34 -146.76 620.65 C-146.76 586.15 -146.75 551.64 -146.73 517.13 C-146.72 486.51 -146.71 455.88 -146.71 425.26 C-146.71 423.29 -146.71 421.32 -146.71 419.36 C-146.71 418.38 -146.71 417.41 -146.71 416.41 C-146.71 411.51 -146.71 406.61 -146.71 401.71 C-146.71 400.75 -146.71 399.78 -146.71 398.79 C-146.71 373.15 -146.71 347.51 -146.7 321.88 C-146.7 320.96 -146.7 320.05 -146.7 319.11 C-146.7 315.44 -146.7 311.78 -146.7 308.11 C-146.7 295.37 -146.69 282.64 -146.69 269.9 C-146.69 253.49 -146.69 237.08 -146.68 220.67 C-146.67 212.01 -146.67 203.34 -146.67 194.67 C-146.67 188.87 -146.67 183.07 -146.67 177.27 C-146.66 173.97 -146.66 170.68 -146.66 167.38 C-146.69 128.72 -146.69 128.72 -143.84 116.63 C-143.67 115.89 -143.5 115.14 -143.32 114.37 C-141.69 107.83 -138.92 103.35 -133.94 98.81 C-132.31 97.02 -131.75 95.62 -131.03 93.32 C-130.78 92.52 -130.52 91.73 -130.27 90.91 C-129.48 88.08 -128.85 85.24 -128.21 82.38 C-125.94 73.17 -122.54 66.17 -114.54 60.91 C-109.95 57.15 -107.25 51.32 -104.37 46.2 C-100.8 40.46 -95.43 38.21 -89.53 35.26 C-85.64 33.01 -83.15 30.85 -80.4 27.38 C-72.79 18.54 -62.09 16.31 -51.09 14.26 C-45.4 13.1 -41.74 11.34 -37.26 7.65 C-35.16 5.97 -33.1 4.95 -30.59 4.01 C-29.84 3.71 -29.09 3.42 -28.31 3.12 C-18.81 0.19 -9.85 -0.03 0 0 Z M456.79 199.51 C455.77 199.67 455.77 199.67 454.74 199.84 C450.38 200.69 447.59 202.1 444.47 205.26 C443.23 207.63 443.23 207.63 442.47 210.19 C440.84 214.62 439.25 217.27 435.47 220.26 C434.32 220.76 433.16 221.27 431.97 221.79 C428.75 223.61 427.83 225.13 426.84 228.67 C426.46 230.4 426.11 232.14 425.79 233.88 C425.39 235.69 424.99 237.5 424.58 239.3 C424.3 240.59 424.3 240.59 424.01 241.91 C421.72 251.93 417.86 256.66 409.47 262.26 C408.49 264.82 408.49 264.82 407.82 267.86 C407.54 268.99 407.26 270.12 406.97 271.28 C406.39 273.66 405.82 276.03 405.25 278.41 C403.39 285.82 401.58 292.99 395.38 297.93 C394.73 298.28 394.08 298.64 393.41 299.01 C388.67 302.23 387.9 306.16 386.38 311.49 C385.17 315.18 383.53 316.89 380.47 319.26 C379.9 319.73 379.32 320.21 378.73 320.7 C364.47 332.12 348.04 333.61 330.47 334.82 C328.77 334.95 327.08 335.07 325.38 335.2 C316.59 335.84 307.81 336.36 299 336.75 C298.16 336.79 297.31 336.83 296.44 336.87 C292.4 337.05 288.36 337.22 284.32 337.35 C268.24 337.65 268.24 337.65 254.36 344.26 C252.88 346.24 252.88 346.24 251.65 348.36 C248.51 353.43 242.95 354.94 237.52 356.45 C235.16 357.38 234.12 358.34 232.47 360.26 C227.16 376.96 227.23 394.48 229.66 411.69 C229.76 412.46 229.86 413.22 229.97 414.01 C230.85 419.35 232.78 423.26 236.47 427.26 C238.45 428.63 240.45 429.96 242.47 431.26 C244.75 433.8 246.54 436.36 248.35 439.26 C251.37 443.52 254.9 446.35 259.41 448.94 C263.13 451.76 265.12 454.94 267.68 458.79 C270.91 463.25 274.83 466.28 279.54 469.07 C283 471.65 284.63 474.4 286.91 478.01 C289.96 482.4 293.93 485.38 298.54 488.01 C306 493.73 310.08 504.39 312.47 513.26 C312.86 519.82 311.97 526.18 311.16 532.69 C310.14 541.29 309.31 549.88 308.71 558.52 C308.65 559.41 308.59 560.3 308.52 561.21 C308.22 565.63 307.93 570.05 307.65 574.46 C306.93 585.55 305.54 596.35 303.47 607.26 C303.27 608.34 303.07 609.42 302.86 610.54 C302.17 614.08 301.47 617.61 300.75 621.14 C299.44 627.77 298.72 633.08 301.29 639.51 C302.66 643.07 303.92 646.59 304.97 650.26 C306.56 655.68 308.43 660.99 310.47 666.26 C310.85 667.47 311.23 668.69 311.62 669.94 C313.2 673.55 313.2 673.55 316.89 674.75 C318.28 675.05 319.69 675.33 321.1 675.57 C321.85 675.72 322.59 675.87 323.36 676.03 C342.05 679.65 358.73 679.43 377.47 676.26 C378.68 676.06 378.68 676.06 379.9 675.85 C389.72 674.34 389.72 674.34 397.1 668.26 C397.44 667.6 397.78 666.94 398.14 666.26 C402.01 660.46 408.55 659.14 414.91 657.63 C417.35 657.03 419.79 656.42 422.22 655.81 C424.26 655.31 426.31 654.84 428.36 654.38 C431.93 653.09 432.9 652.03 434.91 648.88 C440.21 640.62 450.88 638.4 459.92 636.25 C474.98 633.2 491.04 634.01 505.47 639.26 C506.43 639.56 507.4 639.86 508.39 640.17 C513.63 641.95 516.81 644.01 520.12 648.48 C524.36 654.06 527.93 655.21 534.6 656.69 C553.11 661.21 553.11 661.21 558.47 669.26 C565.67 677.38 578.33 677.53 588.47 679.26 C589.28 679.4 590.09 679.54 590.92 679.68 C605.92 682.18 620.86 681.86 633.92 673.2 C644.04 665.5 648.91 657.48 650.91 644.82 C652.02 634.89 650.96 624.99 650.11 615.07 C649.64 609.58 649.27 604.1 648.99 598.6 C648.55 569.17 648.55 569.17 638.47 542.26 C635.57 536.23 634.35 529.86 633.47 523.26 C633.31 522.04 633.31 522.04 633.14 520.8 C632.82 516.48 633.25 513.96 636.04 510.57 C638.18 508.35 640.46 506.5 642.91 504.63 C646.38 501.84 647.83 498.75 649.72 494.76 C652.82 488.58 655.77 486.35 661.95 483.51 C666.73 481.14 668.84 477.64 671.04 472.82 C673.52 468.17 678.08 466.3 682.6 463.93 C686.56 461.62 688.9 459.48 690.85 455.32 C693.2 450.89 696.53 448.31 700.91 445.94 C705.79 442.73 709.39 438.03 712.41 433.07 C714.78 429.84 717.07 428.46 720.57 426.63 C724.89 423.51 725.92 419.26 726.81 414.18 C729.11 398.91 729.77 383.87 726.79 368.63 C726.64 367.84 726.49 367.06 726.34 366.25 C725.5 362.55 724.84 360.64 722.17 357.85 C719.46 356.25 717.05 355.31 714.04 354.44 C709.28 352.83 706.73 351.09 703.79 347.04 C698.84 340.34 693.45 339.49 685.47 338.26 C680.49 337.73 675.49 337.54 670.48 337.35 C666.32 337.19 662.17 336.98 658.01 336.78 C656.72 336.72 656.72 336.72 655.41 336.66 C646.59 336.23 637.79 335.66 628.99 335.01 C627.34 334.88 625.68 334.77 624.03 334.65 C607.99 333.54 592.18 332.15 579.47 321.26 C578.24 320.67 578.24 320.67 576.97 320.07 C571.88 316.38 569.72 310.43 568.16 304.51 C567.36 301.85 566.94 300.6 564.69 298.93 C564 298.57 563.31 298.2 562.6 297.82 C557.19 294.82 555.4 291.04 553.47 285.26 C552.34 280.75 551.32 276.22 550.44 271.66 C548.96 264.56 546.59 261.34 540.47 257.26 C533.22 251.23 531.65 238.77 530.08 229.91 C529.38 226.41 528.95 224.62 526.07 222.42 C525.21 222.04 524.36 221.65 523.47 221.26 C517.65 217.41 515.21 213.27 512.81 206.75 C510.61 202.65 507.66 201.62 503.33 200.31 C488.06 197.23 472.17 196.95 456.79 199.51 Z " fill="#000000" transform="translate(161.5267276763916,55.74273109436035)"/>
</svg>
