<?xml version="1.0" encoding="UTF-8"?>
<!-- Generator: visioncortex VTracer 0.6.3 -->
<svg version="1.1" xmlns="http://www.w3.org/2000/svg" width="1280" height="1280">
<path d="M0 0 C4.13 0.01 8.25 0 12.38 -0 C62.98 -0.06 62.98 -0.06 81.66 2.51 C82.61 2.62 83.55 2.73 84.52 2.85 C92.97 3.95 100.38 5.64 107.67 10.15 C115.14 14.41 123.2 14.85 131.6 15.76 C159.48 18.88 159.48 18.88 164.48 25.13 C170.16 31.72 182.32 32.17 190.54 33.13 C204.04 34.78 204.04 34.78 207.98 39.81 C208.59 40.71 208.59 40.71 209.23 41.63 C213.3 46.99 220.55 47.44 226.79 48.73 C232.87 50.04 238.18 51.65 242.66 56.13 C243 56.94 243.34 57.75 243.69 58.58 C246.74 62.52 250.65 62.87 255.35 64.01 C262.6 65.95 269.1 67.7 273.66 74.13 C273.99 75.12 274.32 76.11 274.66 77.13 C277.95 78.51 281.18 79.72 284.62 80.67 C289.07 82.03 291.71 83.95 295.04 87.19 C300.19 92.14 305.91 95.23 312.33 98.33 C317.45 100.93 319.75 103.35 322.51 108.36 C324.23 111.01 326.24 111.74 329.16 112.76 C335.25 115.19 338.05 117.74 340.91 123.76 C343.26 126.94 345.85 127.65 349.44 129.11 C353.72 131.08 356.14 133.8 357.85 138.13 C359.93 141.56 360.9 141.86 364.48 143.38 C369.86 145.78 371.5 148.66 374.16 153.77 C376.2 156.97 378.57 158.28 381.84 160.06 C385.79 162.37 387.42 165.41 388.85 169.63 C391.11 173.99 393.25 174.72 397.51 176.82 C401.61 179.32 403.15 183.18 404.35 187.76 C405.94 190.63 406.92 190.81 409.85 192.13 C415.58 195 417.2 199.45 419.9 205.03 C422.02 208.77 424.24 210.67 427.87 212.88 C431.86 215.65 433.27 219.39 435.01 223.82 C437.68 230.57 439.91 235.11 445.87 239.49 C449.24 242.57 450.26 246.9 451.66 251.13 C453.26 255.16 454.52 257.2 458.1 259.51 C465.46 264.35 466.81 273.68 468.55 281.77 C469.95 287.45 471.57 289.01 476.66 292.13 C480 296.96 481.54 301.5 482.79 307.19 C485 317.93 485 317.93 492.66 325.13 C497.21 331.38 498.09 338.12 499.35 345.63 C499.56 346.83 499.78 348.03 499.99 349.26 C500.82 353.95 501.63 358.6 502.06 363.35 C502.35 366.24 502.35 366.24 504.57 367.36 C505.26 367.61 505.95 367.87 506.66 368.13 C515.62 377.79 515.36 394.04 516.48 406.38 C517.37 415.4 519.11 422.75 523.66 430.63 C532.17 447.2 530.83 468.35 531.23 486.51 C531.25 487.43 531.27 488.35 531.29 489.31 C531.96 519.62 531.9 549.94 531.29 580.26 C531.27 581.11 531.26 581.97 531.24 582.86 C531.06 592.43 530.6 601.92 529.71 611.45 C529.59 612.75 529.59 612.75 529.46 614.08 C528.42 624.51 526.46 634.61 520.14 643.21 C517.99 647.47 517.65 651.74 517.1 656.44 C516.91 657.91 516.91 657.91 516.72 659.41 C516.16 663.85 515.64 668.29 515.17 672.75 C514.12 682.52 512.94 692.85 505.66 700.13 C505 700.46 504.34 700.79 503.66 701.13 C502.91 703.47 502.29 705.74 501.73 708.13 C501.47 709.19 501.47 709.19 501.2 710.27 C499.78 716.26 498.68 722.28 497.79 728.37 C497.02 733.28 496.05 738.24 491.98 741.47 C491.4 741.81 490.82 742.15 490.23 742.51 C484.88 746.75 484.46 753.88 483.11 760.21 C481.36 767.79 479.04 772.66 472.66 777.13 C468.84 779.86 468.63 783.99 467.79 788.32 C466.06 796.33 464.35 802.46 457.48 807.44 C456.08 808.28 456.08 808.28 454.66 809.13 C452.78 811.95 452.13 813.73 451.29 816.94 C449.55 822.9 447.05 826.9 442.41 831.01 C438.16 835.05 436.01 840.05 433.68 845.36 C431.42 850.31 429.06 852.9 424.66 856.13 C421.23 859.08 419.36 861.56 417.66 865.69 C416.01 869.67 414.48 871.89 410.66 874.13 C409 874.5 407.34 874.84 405.66 875.13 C405.51 875.79 405.35 876.46 405.18 877.14 C403.7 882.75 402.47 886.53 397.66 890.13 C396.47 890.56 395.27 891 394.04 891.44 C390.65 892.71 390.65 892.71 389.83 894.85 C389.63 895.52 389.43 896.19 389.23 896.88 C387.67 902.1 384.2 905.26 379.66 908.13 C376.91 908.82 376.91 908.82 374.66 909.13 C374.42 910.18 374.17 911.23 373.91 912.32 C372.8 916.06 371.55 918.39 368.66 921.13 C367.01 921.93 365.34 922.7 363.66 923.44 C358.92 925.63 357.5 927.53 355.57 932.27 C354.02 935.45 351.75 936.59 348.66 938.13 C346 938.97 343.4 939.56 340.66 940.13 C340.6 941.15 340.6 941.15 340.54 942.19 C339.03 947.25 335.95 950.85 331.34 953.43 C329.13 954.41 326.92 955.29 324.66 956.13 C322.28 957.08 322.28 957.08 320.98 960.44 C318.7 964.51 315.78 966.16 311.66 968.13 C304.19 971.83 298.09 975.26 292.42 981.41 C289.27 984.5 285.54 985.62 281.37 986.76 C275.65 988.4 273.78 989.86 270.66 995.13 C264.65 1000.25 256.43 1002.4 248.79 1003.88 C245.32 1005.27 244.88 1006 242.91 1009.01 C238.53 1015.37 232.08 1016.49 224.79 1017.86 C222.21 1018.33 219.64 1018.74 217.05 1019.13 C213.01 1020.32 211.39 1021.98 208.66 1025.13 C202.42 1031.37 195.42 1032.53 186.89 1033.92 C174.06 1036.06 174.06 1036.06 163.34 1043.23 C154.54 1049.48 142.25 1049.28 131.82 1050.36 C118.09 1051.63 118.09 1051.63 105.85 1057.63 C81.2 1073.71 33.89 1066.3 5.26 1066.26 C0.93 1066.26 -3.4 1066.26 -7.74 1066.26 C-24.73 1066.28 -41.71 1066.19 -58.7 1065.67 C-59.38 1065.65 -60.05 1065.63 -60.75 1065.61 C-101.12 1064.37 -101.12 1064.37 -113.21 1056.07 C-122.39 1049.98 -135.17 1050.23 -145.84 1049.13 C-156.78 1047.99 -165.58 1045.61 -174.26 1038.57 C-176.56 1036.97 -178.44 1036.33 -181.15 1035.63 C-182.11 1035.38 -183.07 1035.13 -184.06 1034.88 C-187.7 1034.05 -191.35 1033.37 -195.02 1032.69 C-208.12 1030.11 -208.12 1030.11 -212.57 1024.13 C-215.42 1020.59 -218.68 1019.8 -223.02 1019.01 C-224.45 1018.69 -225.88 1018.37 -227.31 1018.05 C-227.99 1017.9 -228.68 1017.75 -229.4 1017.59 C-236.99 1015.79 -241.85 1013.53 -246.34 1007.13 C-249.02 1003.47 -252.82 1003.09 -257.02 1002.19 C-271.77 998.75 -271.77 998.75 -275.84 993.01 C-277.34 990.13 -277.34 990.13 -277.34 988.13 C-278.11 987.97 -278.88 987.81 -279.68 987.65 C-288.15 985.75 -294.46 983.45 -300.27 976.88 C-304.4 972.45 -309.76 970.14 -315.21 967.68 C-320.3 965.23 -322.45 962.83 -325.17 957.92 C-326.9 955.26 -328.9 954.52 -331.84 953.51 C-337.88 951.08 -340.78 948.56 -343.52 942.51 C-346.07 939.17 -349.09 938.56 -352.96 937.15 C-356.18 935.77 -357.6 934.16 -359.34 931.13 C-359.74 929.55 -359.74 929.55 -360.15 927.94 C-360.74 926.55 -360.74 926.55 -361.34 925.13 C-363.64 924.38 -365.98 923.72 -368.34 923.13 C-372.36 920.45 -374.29 918.56 -376.15 914.13 C-378.13 909.66 -380.88 908.55 -385.15 906.48 C-389.38 903.87 -391.36 899.47 -393.23 894.99 C-394.61 892.67 -395.65 892.32 -398.15 891.38 C-403.01 889.15 -405.07 885.87 -407.34 881.13 C-407.74 879.77 -407.74 879.77 -408.15 878.38 C-409.58 875.67 -410.46 875.46 -413.21 874.26 C-418.4 871.91 -420.11 868.12 -422.18 863.08 C-423.97 858.99 -425.28 856.88 -429.27 854.76 C-435.29 851.41 -437.27 845.64 -439.2 839.29 C-439.68 837.56 -440.14 835.82 -440.56 834.06 C-440.95 833.11 -440.95 833.11 -441.34 832.13 C-442.33 831.8 -443.32 831.47 -444.34 831.13 C-444.34 830.47 -444.34 829.81 -444.34 829.13 C-444.91 828.92 -445.49 828.72 -446.09 828.51 C-451.79 825.02 -453.36 818.65 -455.31 812.62 C-456.62 809.44 -458.14 807.91 -460.98 806.05 C-468.75 800.78 -470.16 790.87 -472.3 782.27 C-473.05 778.9 -473.05 778.9 -476.15 777.32 C-483.4 772.34 -484.74 763.98 -486.34 755.82 C-486.47 755.04 -486.6 754.26 -486.73 753.46 C-487.7 748.22 -489.11 745.66 -493.34 742.13 C-499.64 735.83 -500.79 728.76 -502.13 720.13 C-504.14 706.85 -504.14 706.85 -511.43 695.77 C-517.89 686.8 -517.7 673.71 -518.84 663.02 C-519.92 653.01 -521.68 645.03 -526.72 636.25 C-535.15 619.96 -533.65 595.82 -533.96 577.88 C-534 576.06 -534.03 574.23 -534.07 572.41 C-534.16 567.85 -534.23 563.3 -534.3 558.74 C-534.33 556.23 -534.38 553.71 -534.42 551.2 C-534.49 547.47 -534.54 543.73 -534.57 540 C-534.59 538 -534.62 535.99 -534.65 533.99 C-534.68 526.69 -534.4 521.36 -530.02 515.32 C-524.88 511.7 -518.99 511.76 -512.96 511.76 C-512.15 511.73 -511.34 511.71 -510.5 511.68 C-504.9 511.65 -499.73 512.4 -495.34 516.13 C-491.58 521.58 -491.72 527.31 -491.46 533.7 C-491.4 534.82 -491.34 535.94 -491.28 537.1 C-491.1 540.67 -490.94 544.24 -490.77 547.82 C-490.61 551.37 -490.43 554.93 -490.25 558.48 C-490.14 560.69 -490.04 562.9 -489.94 565.11 C-489.48 574.43 -488.26 583.24 -484.96 592.01 C-479.12 608.81 -477.66 626.24 -476.46 643.87 C-475.82 658.22 -475.82 658.22 -468.9 670.26 C-461.81 678.74 -461.23 691.44 -459.81 702.01 C-458.86 708.28 -457.88 713.02 -452.96 717.26 C-445.28 724.27 -443.82 737.54 -442.31 747.4 C-441.99 748.3 -441.67 749.2 -441.34 750.13 C-438.97 751.26 -438.97 751.26 -436.34 752.13 C-431.65 756.47 -430.37 762.38 -428.59 768.32 C-428.11 769.83 -428.11 769.83 -427.63 771.38 C-425.34 778.8 -425.34 778.8 -425.34 781.13 C-424.61 781.36 -423.89 781.58 -423.15 781.82 C-418.39 784.04 -416.07 786.18 -414.23 791.07 C-413.85 792.18 -413.47 793.3 -413.09 794.44 C-410.95 800.46 -408.48 803.15 -403.56 807.04 C-397.25 812.97 -394.72 821.83 -393.34 830.13 C-392.28 830.22 -392.28 830.22 -391.21 830.32 C-387.41 831.39 -384.8 833.08 -382.34 836.13 C-381.68 837.78 -381.08 839.45 -380.52 841.13 C-379.06 845.32 -377.81 846.89 -373.84 848.88 C-373.05 849.25 -372.26 849.62 -371.45 849.99 C-367.35 852.2 -365.8 855.96 -364.15 860.13 C-362.23 863.31 -360.99 864.16 -357.9 866.07 C-353.28 868.92 -351.77 871.35 -349.34 876.13 C-346.79 879.08 -344.85 880.88 -341.34 882.57 C-336.92 884.87 -334.24 888.19 -332.15 892.69 C-330.06 895.5 -328.54 896.13 -325.4 897.57 C-320.14 900 -317.65 902.73 -315.54 908.2 C-313.92 910.8 -312.48 911.05 -309.59 911.94 C-304.35 913.85 -301.3 916.42 -298.34 921.13 C-298.01 922.12 -297.68 923.11 -297.34 924.13 C-294.98 925.22 -292.71 926.13 -290.27 927.01 C-275.7 932.56 -275.7 932.56 -272.15 938.63 C-269.21 943.31 -264.45 944.1 -259.45 945.81 C-255.09 947.66 -252.84 950.21 -250.34 954.13 C-248.1 957.48 -247.65 957.62 -243.98 958.6 C-243.11 958.84 -242.24 959.08 -241.34 959.33 C-240.43 959.57 -239.52 959.82 -238.59 960.07 C-227.11 963.14 -227.11 963.14 -222.34 967.13 C-221.8 968.14 -221.25 969.15 -220.7 970.19 C-216.99 974.81 -212.21 975.08 -206.59 976.19 C-197.34 978.09 -190.5 980.25 -183.52 986.76 C-176.81 991.76 -168.35 992.31 -160.27 993.57 C-144.14 996.11 -144.14 996.11 -138.96 1001.69 C-131.51 1008.62 -117.64 1007.94 -107.9 1008.78 C-75.28 1011.64 -75.28 1011.64 -60.15 1018.32 C-53.34 1021.3 -45.67 1021.52 -38.34 1022.13 C-37.38 1022.22 -36.43 1022.31 -35.44 1022.4 C-26.9 1023.14 -18.41 1023.29 -9.84 1023.26 C-9.13 1023.25 -8.42 1023.25 -7.7 1023.25 C2.68 1023.22 13.04 1023.07 23.41 1022.76 C24.56 1022.72 25.7 1022.69 26.88 1022.66 C36.79 1022.31 46.51 1021.62 55.73 1017.76 C72.48 1011.05 90.68 1010.14 108.49 1008.61 C124.98 1007.58 124.98 1007.58 138.84 999.61 C145.63 994.09 155.28 993.35 163.67 992.26 C171.1 991.25 178.49 990.23 183.54 984.26 C191.84 976.29 205.65 975.18 216.66 974.13 C216.89 973.41 217.12 972.69 217.35 971.94 C219.42 967.52 221.68 964.97 226.16 963.08 C230.21 961.71 234.29 960.47 238.38 959.26 C244.69 957.45 244.69 957.45 249.21 953.01 C249.69 952.06 250.17 951.11 250.66 950.13 C254.03 947.39 257.12 945.92 261.23 944.69 C266.57 943.04 269.17 939.9 272.73 935.69 C277.99 931.1 284.75 927.53 291.66 926.26 C294.7 925.47 294.7 925.47 295.69 923.42 C296.3 922 296.91 920.59 297.51 919.17 C299.95 914.87 304.69 912.79 309.23 911.27 C312.2 909.88 312.99 908.57 314.6 905.76 C317.79 900.67 321.1 898.13 326.73 895.94 C329.93 893.96 330.35 893.09 331.91 889.82 C333.9 885.8 335.71 884.22 339.66 882.13 C344.51 879.56 346.25 877.05 348.59 872.18 C350.65 868.25 353.62 866.52 357.66 865.01 C361.64 862.52 362.55 859.68 364.45 855.5 C366.59 851.32 369.77 849.61 373.79 847.44 C376.86 844.97 377.12 844.35 378.1 840.76 C379.51 835.63 382.23 832.95 386.66 830.13 C387.65 829.8 388.64 829.47 389.66 829.13 C390.91 826.6 392 824.12 393.04 821.51 C398.44 807.92 398.44 807.92 404.26 804.69 C408.35 802.04 409.26 797.54 410.89 793.11 C413.45 786.64 416.87 783.99 422.66 780.13 C423.56 778.13 423.56 778.13 424.13 775.77 C424.37 774.9 424.61 774.03 424.86 773.14 C425.11 772.23 425.35 771.32 425.6 770.38 C428.67 758.9 428.67 758.9 432.66 754.13 C433.67 753.59 434.68 753.05 435.72 752.49 C440.34 748.79 440.65 744.01 441.79 738.38 C445.55 720.72 445.55 720.72 451.73 714.76 C457.33 708.43 457.85 700.18 459.1 692.13 C460.37 684.02 461.68 676.55 467.23 670.19 C474.71 660.79 473.85 645.57 474.82 634.05 C475.63 624.51 476.67 615.13 478.63 605.75 C478.79 604.98 478.95 604.21 479.12 603.41 C480.1 598.95 481.44 594.89 483.29 590.69 C486.8 582.18 487.11 573.23 487.66 564.13 C487.71 563.48 487.75 562.84 487.8 562.17 C488.62 550.03 488.73 537.99 488.42 525.83 C488.35 523 488.3 520.17 488.24 517.34 C488.38 496.65 488.38 496.65 482.64 477.15 C480.79 473.34 480.02 469.26 479.16 465.13 C478.95 464.14 478.75 463.15 478.53 462.13 C476.11 449.7 475.13 437.07 474.1 424.46 C473.34 407.81 473.34 407.81 465.16 394.06 C459.91 387.31 459.48 377.87 458.29 369.71 C456.89 360.85 454.65 353.51 448.13 347.13 C443.28 340.52 442.3 331.42 440.82 323.56 C439.63 317.84 439.63 317.84 435.66 313.69 C434.17 312.92 434.17 312.92 432.66 312.13 C426.83 306.01 422.66 293.47 422.66 285.13 C421.94 284.9 421.22 284.68 420.48 284.44 C416.25 282.47 413.44 280.24 411.79 275.76 C411.29 274.01 410.8 272.25 410.33 270.5 C409.09 266.08 407.68 263.77 403.79 261.32 C396.94 256.52 393.07 247.3 390.91 239.38 C389.16 236.22 386.63 235.1 383.56 233.3 C380.47 231.4 379.13 229.4 377.89 226.02 C376.31 221.35 376.31 221.35 372.87 218.11 C371.87 217.75 371.87 217.75 370.85 217.38 C366.35 215.62 365.23 212.89 363.16 208.63 C360.58 203.34 358.94 200.93 353.45 198.87 C350.58 197.68 349.31 195.7 347.66 193.13 C347.08 191.65 347.08 191.65 346.48 190.13 C344.17 186.32 341.7 185.32 337.82 183.35 C334.14 181.27 332.14 178.67 330.9 174.66 C329.28 171.34 327.6 170.69 324.29 169.13 C319 166.43 315.97 164.1 313.54 158.57 C311.37 155.74 310.15 155.41 306.85 154.26 C301.58 152.36 298.69 149.8 295.66 145.13 C295.38 144.44 295.1 143.74 294.82 143.02 C293.21 140.38 291.66 140.17 288.73 139.32 C282.02 137.07 273.9 133.91 270.16 127.6 C267.38 123.03 263.07 121.83 258.16 120.32 C252.98 118.5 250.55 116.8 247.66 112.13 C247.66 111.14 247.66 110.15 247.66 109.13 C246.62 108.89 245.59 108.65 244.52 108.4 C221.99 103.04 221.99 103.04 216.66 95.13 C216.33 94.47 216 93.81 215.66 93.13 C213.38 92.37 213.38 92.37 210.6 91.8 C209.55 91.56 208.51 91.31 207.44 91.07 C205.24 90.57 203.05 90.09 200.85 89.6 C192.78 87.72 186.92 85.17 180.85 79.51 C174.83 75.02 167.59 74.26 160.33 73.06 C143.08 70.21 143.08 70.21 136.04 64.07 C126.08 56.36 109.65 57.56 97.59 56.51 C84.71 55.37 72.52 53.87 60.6 48.51 C53.52 45.35 46.31 44.74 38.66 44.13 C37.72 44.04 36.78 43.96 35.81 43.87 C25.74 43.02 15.69 42.98 5.59 43 C2.7 43.01 -0.2 43 -3.09 42.99 C-12.87 42.99 -22.62 43.15 -32.38 43.59 C-33.75 43.65 -33.75 43.65 -35.13 43.71 C-43.14 44.1 -50.53 44.86 -57.96 48.01 C-75.69 55.47 -96.08 56.56 -115.02 58.13 C-130.19 59.03 -130.19 59.03 -142.34 67.13 C-148.76 70.91 -155.56 72.13 -162.84 73.19 C-175.26 74.45 -175.26 74.45 -185.46 80.57 C-186.08 81.41 -186.7 82.26 -187.34 83.13 C-194.15 87.86 -201.68 89.01 -209.71 90.58 C-216.54 92.01 -216.54 92.01 -221.38 96.7 C-222.35 98.4 -222.35 98.4 -223.34 100.13 C-230.21 104.63 -242.04 109.13 -250.34 109.13 C-250.38 109.85 -250.42 110.57 -250.46 111.32 C-251.68 115.22 -253.95 117.07 -257.34 119.13 C-259.95 120.24 -262.57 121.23 -265.26 122.14 C-265.95 122.47 -266.63 122.79 -267.34 123.13 C-267.67 124.12 -268 125.11 -268.34 126.13 C-266.37 129.2 -264.59 130.98 -261.46 132.88 C-258.43 135.06 -257.41 136.36 -255.52 139.44 C-252.76 143.88 -249.57 146.53 -245.38 149.58 C-242.88 151.48 -241.16 153.59 -239.34 156.13 C-236.83 159.37 -234.75 161.85 -231.34 164.13 C-226.91 167.08 -224.15 171.09 -220.9 175.26 C-218.47 178.22 -218.47 178.22 -215.34 180.13 C-211.69 182.56 -209.71 184.42 -207.34 188.13 C-207.91 193.51 -211.42 197.59 -215.34 201.13 C-217.55 202.55 -219.79 203.76 -222.13 204.95 C-224.17 206.04 -225.75 207.22 -227.52 208.69 C-239.02 217.08 -256.58 216.78 -270.31 217.82 C-288.5 218.52 -288.5 218.52 -304.34 226.13 C-318.25 233.5 -336.73 233.46 -352.05 234.31 C-361.37 234.89 -370.41 236.02 -378.4 241.13 C-391.62 249.58 -411.93 250.54 -427.34 249.13 C-431.49 247.96 -433.69 246.19 -435.98 242.45 C-441.54 228.82 -436.62 205.6 -431.5 192.29 C-430.34 190.13 -430.34 190.13 -428.37 187.86 C-421.99 179.3 -422.58 165.62 -421.84 155.26 C-419.56 123.56 -419.56 123.56 -410.65 110.69 C-405.84 101.3 -406.51 88.58 -405.73 78.18 C-404.13 57.07 -400.29 37.5 -384.34 22.13 C-379.6 18.94 -379.6 18.94 -375.84 19.51 C-371.73 22.17 -369.03 25.95 -366.06 29.78 C-363.98 32.4 -362.13 34.27 -359.34 36.13 C-354.91 39.08 -352.15 43.09 -348.9 47.26 C-346.47 50.22 -346.47 50.22 -343.34 52.13 C-338.91 55.08 -336.15 59.09 -332.9 63.26 C-330.47 66.22 -330.47 66.22 -327.34 68.13 C-322.96 71.05 -320.21 74.89 -317.2 79.16 C-314.09 82.86 -310.64 83.82 -306.02 84.82 C-305.26 84.99 -304.5 85.16 -303.71 85.34 C-300.41 85.97 -298.05 86.35 -294.8 85.36 C-292.87 84.1 -292.87 84.1 -291.16 82.55 C-288.91 80.8 -287.04 80.46 -284.27 79.88 C-280 78.75 -278.46 77.41 -276.02 73.76 C-270.79 66.17 -261.97 64.7 -253.4 62.82 C-248.23 61.52 -246.71 59.39 -243.88 55.06 C-240.11 50.35 -233.78 49.4 -228.12 48.25 C-217.97 46.51 -217.97 46.51 -210.66 39.8 C-205.47 33.24 -193.51 32.88 -185.82 31.61 C-179.05 30.46 -173.89 28.64 -168.59 24.13 C-158.95 16.83 -145.95 17.03 -134.34 15.9 C-132.04 15.67 -129.73 15.43 -127.42 15.19 C-126.73 15.13 -126.04 15.07 -125.32 15 C-117.54 14.19 -111.8 11.48 -105.34 7.13 C-89.47 0.77 -71.92 1.01 -55.1 0.59 C-54.28 0.57 -53.46 0.54 -52.61 0.52 C-35.07 0.07 -17.54 -0.02 0 0 Z " fill="#000000" transform="translate(657.33642578125,106.86962890625)"/>
<path d="M0 0 C1.24 -0.01 1.24 -0.01 2.51 -0.02 C7.57 0.03 11.13 0.65 15.5 3.44 C20.53 8.87 20.71 13.22 20.75 20.25 C20.77 21.04 20.79 21.84 20.81 22.66 C20.85 27.68 20.28 31.09 17.5 35.44 C11.95 40.57 7.38 40.67 0.19 40.75 C-1.08 40.79 -1.08 40.79 -2.37 40.84 C-7.92 40.89 -11.19 40.27 -15.5 36.44 C-20.04 31.36 -20.11 26.93 -20 20.44 C-20.02 19.56 -20.03 18.68 -20.05 17.78 C-20.01 12.19 -19.36 8.76 -15.5 4.44 C-10.5 0.02 -6.36 -0.15 0 0 Z " fill="#000000" transform="translate(655.5,1051.5625)"/>
<path d="M0 0 C1.24 -0.01 1.24 -0.01 2.51 -0.02 C7.57 0.03 11.13 0.65 15.5 3.44 C20.53 8.87 20.71 13.22 20.75 20.25 C20.77 21.04 20.79 21.84 20.81 22.66 C20.85 27.68 20.28 31.09 17.5 35.44 C11.95 40.57 7.38 40.67 0.19 40.75 C-1.08 40.79 -1.08 40.79 -2.37 40.84 C-7.92 40.89 -11.19 40.27 -15.5 36.44 C-20.04 31.36 -20.11 26.93 -20 20.44 C-20.02 19.56 -20.03 18.68 -20.05 17.78 C-20.01 12.19 -19.36 8.76 -15.5 4.44 C-10.5 0.02 -6.36 -0.15 0 0 Z " fill="#000000" transform="translate(1087.5,619.5625)"/>
<path d="M0 0 C1.24 -0.01 1.24 -0.01 2.51 -0.02 C7.57 0.03 11.13 0.65 15.5 3.44 C20.53 8.87 20.71 13.22 20.75 20.25 C20.77 21.04 20.79 21.84 20.81 22.66 C20.85 27.68 20.28 31.09 17.5 35.44 C11.95 40.57 7.38 40.67 0.19 40.75 C-1.08 40.79 -1.08 40.79 -2.37 40.84 C-7.92 40.89 -11.19 40.27 -15.5 36.44 C-20.04 31.36 -20.11 26.93 -20 20.44 C-20.02 19.56 -20.03 18.68 -20.05 17.78 C-20.01 12.19 -19.36 8.76 -15.5 4.44 C-10.5 0.02 -6.36 -0.15 0 0 Z " fill="#000000" transform="translate(223.5,619.5625)"/>
<path d="M0 0 C1.24 -0.01 1.24 -0.01 2.51 -0.02 C7.57 0.03 11.13 0.65 15.5 3.44 C20.53 8.87 20.71 13.22 20.75 20.25 C20.77 21.04 20.79 21.84 20.81 22.66 C20.85 27.68 20.28 31.09 17.5 35.44 C11.95 40.57 7.38 40.67 0.19 40.75 C-1.08 40.79 -1.08 40.79 -2.37 40.84 C-7.92 40.89 -11.19 40.27 -15.5 36.44 C-20.04 31.36 -20.11 26.93 -20 20.44 C-20.02 19.56 -20.03 18.68 -20.05 17.78 C-20.01 12.19 -19.36 8.76 -15.5 4.44 C-10.5 0.02 -6.36 -0.15 0 0 Z " fill="#000000" transform="translate(655.5,187.5625)"/>
<path d="M0 0 C1.88 1.98 3.43 3.8 5 6 C5.44 6.6 5.87 7.2 6.32 7.82 C7.68 9.83 8.86 11.86 10 14 C10.4 14.74 10.81 15.48 11.23 16.24 C13.06 20.5 13.33 23 11.87 27.47 C8.87 34.15 4.89 41.5 -1 46 C-3.86 46.97 -5.33 47.25 -8.18 46.18 C-8.88 45.75 -9.59 45.32 -10.31 44.88 C-11.09 44.41 -11.86 43.94 -12.66 43.46 C-13.43 42.98 -14.2 42.5 -15 42 C-15.72 41.57 -16.44 41.14 -17.18 40.69 C-28.51 33.82 -28.51 33.82 -31 27 C-31.79 21.59 -31 17.66 -28 13 C-24.95 9.55 -21.97 7.27 -18 5 C-16.85 4.15 -15.7 3.3 -14.56 2.44 C-9.71 -1.04 -5.52 -3.4 0 0 Z " fill="#000000" transform="translate(748,1041)"/>
<path d="M0 0 C0.79 0.02 1.59 0.04 2.41 0.06 C7.74 0.31 11.03 1.2 15.19 4.81 C19.34 9.64 19.91 13.7 20.12 19.81 C20.21 20.98 20.21 20.98 20.29 22.18 C20.53 27.19 19.98 30.47 17.19 34.81 C10.05 41.26 1.75 41.16 -7.55 41.03 C-12.26 40.58 -14.98 38.71 -18.12 35.31 C-22.55 28.76 -21.25 19.39 -20.29 11.82 C-19.3 7.62 -16.92 4.78 -13.75 2 C-9.22 -0.78 -5.09 -0.24 0 0 Z " fill="#000000" transform="translate(351.8125,924.1875)"/>
<path d="M0 0 C5.97 6.46 5.18 12.38 4.91 20.67 C4.5 27.2 2.83 30.96 -1.69 35.81 C-8.52 39.32 -17.68 38.34 -25 37 C-29.95 34.61 -32.35 31.77 -35 27 C-35.67 24 -35.83 21.06 -35.94 18 C-35.99 17.22 -36.05 16.44 -36.1 15.63 C-36.34 10.62 -35.8 7.34 -33 3 C-25.16 -4.07 -9 -6.37 0 0 Z " fill="#000000" transform="translate(976,318)"/>
<path d="M0 0 C5.09 0.4 8.09 2.04 11.5 5.81 C16.1 12.46 15.94 22.37 15.19 30.25 C13.53 34.97 11.36 37.5 7.19 40.25 C2.87 41.61 -1.33 41.4 -5.81 41.25 C-6.67 41.22 -7.53 41.19 -8.41 41.16 C-13.94 40.81 -17.46 39.96 -21.81 36.25 C-26.24 31.22 -25.92 26.77 -25.62 20.44 C-25.61 19.64 -25.59 18.85 -25.57 18.03 C-25.32 12.68 -24.31 9.51 -20.81 5.25 C-14.71 -0.25 -7.74 0.51 0 0 Z " fill="#000000" transform="translate(965.8125,923.75)"/>
<path d="M0 0 C3.77 3.31 5.78 5.42 6.54 10.51 C6.56 11.89 6.56 13.28 6.54 14.67 C6.57 15.7 6.57 15.7 6.61 16.76 C6.6 20.6 6.04 23.12 3.66 26.06 C-2.58 32.26 -9.1 35.45 -18.03 35.73 C-24.44 34.85 -29.06 32.89 -33.03 27.73 C-33.03 27.07 -33.03 26.41 -33.03 25.73 C-34.02 25.4 -35.01 25.07 -36.03 24.73 C-38.59 19.6 -37.79 11.37 -37.03 5.73 C-34.79 0.37 -30.14 -2.15 -25.05 -4.54 C-15.96 -7.8 -7.71 -5.38 0 0 Z " fill="#000000" transform="translate(313.02734375,865.26953125)"/>
<path d="M0 0 C6.76 5.16 11.37 14.04 14 22 C14.02 25.93 12.89 28.59 11 32 C10.48 32.95 9.96 33.9 9.43 34.88 C3.22 45.34 3.22 45.34 -2 48 C-9.77 47.55 -15.34 42.89 -21 38 C-21.59 37.55 -22.18 37.11 -22.79 36.64 C-26.45 33.86 -28.47 31.34 -30 27 C-30.74 21.26 -30.04 17.67 -26.76 12.88 C-24.04 9.97 -20.84 8.21 -17.36 6.31 C-14.83 4.99 -14.83 4.99 -12.19 2.75 C-8.04 -0.57 -5.11 -1.49 0 0 Z " fill="#000000" transform="translate(747,193)"/>
<path d="M0 0 C0.75 -0.03 1.49 -0.06 2.26 -0.09 C6.28 -0.1 8.88 0.24 12.06 2.8 C18.23 9.13 21.34 15.55 21.69 24.5 C21.2 30.73 18.75 35.05 14.56 39.62 C8.7 44.49 2.9 44.79 -4.43 44.18 C-8.76 43.42 -11.19 42.63 -14.09 39.34 C-18.32 32.99 -21.2 26.85 -19.91 19.05 C-18.31 12.86 -15.54 8.26 -11.31 3.5 C-10.93 2.94 -10.54 2.38 -10.14 1.81 C-7.08 -0.38 -3.62 -0.01 0 0 Z " fill="#000000" transform="translate(895.3125,976.5)"/>
<path d="M0 0 C4.86 1.61 8.95 3 12.6 6.78 C12.6 7.44 12.6 8.1 12.6 8.78 C13.48 8.98 14.37 9.19 15.29 9.4 C20.13 11.41 22.34 14.67 24.97 19.09 C26.21 24.42 25.37 29.1 23.1 34.03 C20.29 37.11 17.65 38.62 13.97 40.48 C11.55 41.8 9.55 43.3 7.41 45.03 C4.15 47.51 1.85 49.05 -2.4 48.78 C-10.02 44.08 -16.09 35.05 -18.29 26.41 C-18.65 18.17 -13.1 10.75 -8.15 4.62 C-3.46 -0.32 -3.46 -0.32 0 0 Z " fill="#000000" transform="translate(569.40234375,1039.22265625)"/>
<path d="M0 0 C5.5 0.62 8.76 3.03 12.46 7.07 C16.59 12.97 17.79 18.12 16.86 25.26 C15.11 32.88 10.94 39.47 4.3 43.7 C1.48 44.12 -0.84 44.31 -3.64 44.26 C-4.33 44.29 -5.02 44.31 -5.73 44.33 C-9.57 44.32 -12.09 43.77 -15.04 41.39 C-21.23 35.14 -24.42 28.62 -24.7 19.7 C-23.81 13.21 -21.81 8.94 -16.7 4.7 C-15.89 3.67 -15.89 3.67 -15.05 2.62 C-10.78 -0.87 -5.28 -0.25 0 0 Z " fill="#000000" transform="translate(899.703125,259.30078125)"/>
<path d="M0 0 C2.03 1.33 3.89 2.8 5.78 4.33 C8.17 6.12 10.62 7.47 13.25 8.88 C17.34 11.3 19.72 13.42 21.51 17.86 C22.73 23.2 21.77 27.49 19.31 32.31 C16.79 35.24 14.36 37.1 11 39 C10.34 39 9.68 39 9 39 C8.67 39.99 8.34 40.98 8 42 C3.93 45.27 -0.63 48.15 -6 48 C-13.8 44.35 -18.25 34.58 -21.12 26.94 C-22.4 22.18 -21.54 19.3 -19.24 15.02 C-18.83 14.36 -18.42 13.69 -18 13 C-17.38 11.97 -16.76 10.94 -16.12 9.88 C-7.32 -2.03 -7.32 -2.03 0 0 Z " fill="#000000" transform="translate(573,193)"/>
<path d="M0 0 C4.6 2.65 7.36 5.41 9.85 10.09 C9.85 10.75 9.85 11.41 9.85 12.09 C10.51 12.09 11.17 12.09 11.85 12.09 C13.32 14.13 13.32 14.13 14.91 16.84 C15.44 17.72 15.97 18.6 16.51 19.51 C18.78 23.87 18.78 23.87 18.85 26.09 C14.58 34.14 6.19 38.99 -2.02 42.52 C-7.96 44.03 -12.85 41.12 -17.86 38.2 C-28.39 31.45 -28.39 31.45 -29.95 26.61 C-30.5 19.66 -23.96 12.5 -20.15 7.09 C-19.49 6.14 -18.83 5.19 -18.15 4.21 C-13.25 -0.99 -6.65 -2.83 0 0 Z " fill="#000000" transform="translate(238.1484375,701.9140625)"/>
<path d="M0 0 C4.9 2.7 7.21 5.82 9.65 10.79 C11.34 14.11 13.47 17.04 15.64 20.06 C17.04 22.48 17.59 24.42 17.88 27.2 C13.99 34.23 4.47 39.76 -2.85 42.73 C-9.47 44.1 -15.46 40.18 -20.94 36.89 C-28.99 31.39 -28.99 31.39 -31.12 27.2 C-30.67 20.85 -27.84 16.22 -23.53 11.72 C-21.95 10.13 -21.95 10.13 -20.62 7.57 C-16.07 0.36 -8.22 -3.1 0 0 Z " fill="#000000" transform="translate(1086.125,701.80078125)"/>
<path d="M0 0 C2.61 2.01 3.42 2.96 5 6 C4.52 11.98 1.15 16.57 -2.54 21.09 C-3.94 22.92 -4.88 24.67 -5.88 26.75 C-8.61 30.94 -11.3 32.49 -16 34 C-21.6 34.9 -24.67 33.41 -29.2 30.39 C-32.75 27.65 -34.73 24.85 -37 21 C-37.85 19.89 -38.71 18.79 -39.56 17.69 C-42.12 14.06 -44.21 10.56 -44 6 C-40.98 -0.42 -34.02 -3.88 -28 -7 C-27.31 -7.38 -26.61 -7.76 -25.89 -8.14 C-16.46 -12.57 -7.52 -5.51 0 0 Z " fill="#000000" transform="translate(1099,545)"/>
<path d="M0 0 C0.75 -0.03 1.49 -0.06 2.26 -0.09 C6.28 -0.1 8.88 0.24 12.06 2.8 C18.22 9.12 21.35 15.56 21.69 24.5 C21.13 30.71 18.96 34.73 14.5 39.06 C10.05 42.63 7.35 43.5 1.69 43.5 C0.9 43.53 0.11 43.57 -0.71 43.61 C-6.84 43.81 -6.84 43.81 -10.31 41.5 C-10.31 40.84 -10.31 40.18 -10.31 39.5 C-10.89 39.27 -11.47 39.05 -12.06 38.81 C-15.82 36.62 -17.74 34.24 -19.11 30.08 C-20.69 23.23 -20.35 17.87 -17.31 11.5 C-15.52 8.63 -13.56 6.03 -11.31 3.5 C-10.93 2.94 -10.54 2.38 -10.14 1.81 C-7.08 -0.38 -3.62 -0.01 0 0 Z " fill="#000000" transform="translate(415.3125,976.5)"/>
<path d="M0 0 C1.53 1.24 1.53 1.24 4.09 3.93 C4.79 4.63 5.49 5.33 6.21 6.05 C10.06 11.92 9.38 20.19 8.09 26.93 C5.38 32.7 1.18 35.89 -4.72 38.11 C-11.33 39.59 -17.47 38.73 -23.46 35.59 C-25.73 34.13 -27.83 32.64 -29.91 30.93 C-31 30.11 -31 30.11 -32.11 29.28 C-35.9 24.31 -35.01 16.97 -34.37 10.99 C-33.42 6.73 -30.81 4.66 -27.36 2.27 C-26.55 1.83 -25.74 1.38 -24.91 0.93 C-24.25 0.56 -23.6 0.2 -22.93 -0.17 C-15.64 -3.64 -7.19 -4.05 0 0 Z " fill="#000000" transform="translate(1026.90625,862.07421875)"/>
<path d="M0 0 C1.53 1.24 1.53 1.24 4.09 3.93 C4.79 4.63 5.49 5.33 6.21 6.05 C10.06 11.92 9.38 20.19 8.09 26.93 C5.38 32.7 1.18 35.89 -4.72 38.11 C-11.33 39.59 -17.47 38.73 -23.46 35.59 C-25.73 34.13 -27.83 32.64 -29.91 30.93 C-31 30.11 -31 30.11 -32.11 29.28 C-35.9 24.31 -35.01 16.97 -34.37 10.99 C-33.42 6.73 -30.81 4.66 -27.36 2.27 C-26.55 1.83 -25.74 1.38 -24.91 0.93 C-24.25 0.56 -23.6 0.2 -22.93 -0.17 C-15.64 -3.64 -7.19 -4.05 0 0 Z " fill="#000000" transform="translate(1026.90625,382.07421875)"/>
<path d="M0 0 C3.88 3.31 5.96 5.63 6.5 10.86 C6.71 18.79 6.69 26.24 2.56 33.19 C-2.36 37.74 -6.19 38.48 -12.68 38.41 C-19.57 37.86 -26.14 35.71 -31.44 31.19 C-34.14 26.69 -34.99 22.9 -35.38 17.69 C-35.49 16.42 -35.6 15.15 -35.71 13.84 C-35.33 8.8 -33.37 5.93 -29.65 2.58 C-20.71 -2.97 -9.62 -5.07 0 0 Z " fill="#000000" transform="translate(833.4375,1021.8125)"/>
<path d="M0 0 C1.32 0.07 2.63 0.13 3.99 0.2 C9.6 1.03 13.05 3.42 16.55 7.89 C20.5 14.33 21.78 22.33 20.69 29.75 C19.11 34.67 16.25 37.45 11.73 39.91 C8.11 41.4 4.5 41.55 0.62 41.69 C-0.15 41.74 -0.93 41.8 -1.73 41.85 C-7.81 42.15 -11.74 40.82 -16.56 36.94 C-20.95 31.45 -20.51 25.71 -19.85 19.08 C-18.83 12.74 -17.18 6.98 -12.19 2.69 C-7.8 -0.27 -5.15 -0.32 0 0 Z " fill="#000000" transform="translate(1055.3125,782.25)"/>
<path d="M0 0 C4.7 5.08 5.28 9.55 5.75 16.25 C5.85 17.36 5.85 17.36 5.96 18.49 C6.33 23.86 5.55 27.24 3 32 C-1.04 36.04 -4.94 37.96 -10.7 38.04 C-18.13 37.65 -25.87 36.55 -31.7 31.54 C-36.1 26.58 -36.18 22.54 -35.81 16.12 C-35 6.81 -35 6.81 -31 3 C-21.92 -2.58 -9.59 -6.62 0 0 Z " fill="#000000" transform="translate(834,223)"/>
<path d="M0 0 C7.36 4.91 7.36 4.91 8.69 9.26 C10.57 25.95 10.57 25.95 7.19 30.69 C-0.12 35.99 -8.99 38.33 -18 38 C-22.64 37.18 -25.83 35.55 -28.94 32 C-32.52 26.79 -32.08 22.74 -31.81 16.69 C-31.79 15.85 -31.78 15 -31.76 14.13 C-31.51 8.65 -30.62 5.36 -27 1 C-19.58 -5.52 -8.43 -3.91 0 0 Z " fill="#000000" transform="translate(504,223)"/>
<path d="M0 0 C0.79 -0.03 1.57 -0.06 2.38 -0.09 C6.43 -0.1 9.23 0.18 12.48 2.71 C18.5 9.22 20.38 18.78 20.06 27.5 C19.27 31.99 17.64 35.3 14.31 38.44 C7.11 43.01 -1.77 41.81 -9.94 40.5 C-14.57 38.54 -17.11 36.69 -19.94 32.5 C-22.5 24.8 -20.91 16.86 -17.94 9.5 C-13.53 1.42 -8.69 -0.03 0 0 Z " fill="#000000" transform="translate(256.9375,782.5)"/>
<path d="M0 0 C0.79 0.03 1.59 0.05 2.41 0.08 C8.6 0.4 13.13 1.53 17.5 6.25 C20.82 11.17 20.76 16 20.19 21.75 C18.54 28.39 16.24 34.06 11.19 38.75 C4.19 41.54 -4.2 43.23 -11.31 40.31 C-18.34 33.11 -20.29 25.92 -21.12 16.06 C-20.61 10.59 -18.99 6.49 -14.81 2.88 C-9.73 -0.73 -5.93 -0.31 0 0 Z " fill="#000000" transform="translate(1055.8125,456.25)"/>
<path d="M0 0 C3.01 1.91 5.19 4.01 7 7.05 C7.78 13.93 7.98 21.69 5 28.05 C-0.12 33.7 -7.21 36.43 -14.72 37.4 C-19.86 37.57 -23.67 37.04 -28 34.05 C-32.91 28.61 -33.32 24.87 -33.75 17.8 C-33.85 16.53 -33.85 16.53 -33.96 15.23 C-34.35 8.83 -33.3 4.9 -29.19 -0.2 C-21 -6.75 -8.83 -4.19 0 0 Z " fill="#000000" transform="translate(506,1022.94921875)"/>
</svg>
