<?xml version="1.0" encoding="UTF-8"?>
<!-- Generator: visioncortex VTracer 0.6.3 -->
<svg version="1.1" xmlns="http://www.w3.org/2000/svg" width="1280" height="1280">
<path d="M0 0 C3.38 3.75 6.02 8.03 8.78 12.24 C12.07 17.08 15.49 20.99 20.27 24.38 C30.05 31.54 32.72 40.99 34.62 52.53 C39.08 83.46 37.4 115.78 37.5 146.97 C37.52 150.52 37.53 154.07 37.56 157.63 C37.59 161.88 37.6 166.14 37.6 170.39 C37.6 171.98 37.61 173.57 37.62 175.15 C37.7 185.07 37.59 194.16 32.15 202.81 C24.36 209.93 15.69 210.1 5.62 210.01 C3.34 210 1.07 210.03 -1.2 210.07 C-9.54 210.12 -16.79 209.59 -23.73 204.44 C-28.55 198.77 -29.97 192.9 -30.01 185.58 C-30.02 184.92 -30.03 184.26 -30.03 183.58 C-30.05 182.15 -30.06 180.72 -30.06 179.29 C-30.07 176.99 -30.09 174.69 -30.11 172.4 C-30.16 167.47 -30.2 162.55 -30.23 157.62 C-30.4 130.4 -30.4 130.4 -31.45 103.21 C-31.53 101.79 -31.6 100.37 -31.67 98.96 C-31.94 86.74 -31.94 86.74 -37.74 76.48 C-38.48 76.01 -39.22 75.54 -39.98 75.06 C-43.7 72.45 -45.95 69.95 -48.41 66.12 C-50.92 62.33 -50.92 62.33 -54.66 59.81 C-58.42 59.35 -61.96 59.16 -65.73 59.44 C-67.06 59.52 -67.06 59.52 -68.41 59.61 C-76.08 60.47 -81.69 63.32 -88.11 67.37 C-95.24 71.67 -103.14 74.11 -111.23 75.88 C-112.63 76.19 -112.63 76.19 -114.07 76.5 C-126.49 79.05 -139.13 80.27 -151.73 81.56 C-171.31 83.37 -171.31 83.37 -187.55 93.48 C-201.5 106.04 -227.46 105.59 -245.08 107.22 C-265.88 108.29 -265.88 108.29 -282.84 118.64 C-294.49 129.73 -315.54 130.41 -330.54 131.88 C-339.46 132.76 -348.26 133.84 -357.04 135.69 C-357.92 135.86 -358.8 136.02 -359.71 136.2 C-365.36 137.48 -368.32 139.49 -372.18 143.77 C-385.82 158.46 -417.71 157.22 -435.93 158.93 C-454.9 160.58 -454.9 160.58 -470.59 170.48 C-483.37 182.18 -507.25 182.31 -523.6 184 C-544.62 184.85 -544.62 184.85 -561.86 194.6 C-572.89 205.43 -592.12 206.79 -606.81 208.16 C-631.28 209.32 -631.28 209.32 -651.41 221 C-652.08 221.93 -652.74 222.86 -653.43 223.82 C-658.71 229.84 -666.65 231.52 -674.16 233.5 C-675.59 233.88 -675.59 233.88 -677.05 234.28 C-685.53 236.5 -694.06 238.13 -702.73 239.44 C-702.73 240.1 -702.73 240.76 -702.73 241.44 C-685.06 244.35 -667.64 244.88 -649.78 244.83 C-645.79 244.83 -641.8 244.84 -637.81 244.85 C-630.83 244.86 -623.86 244.86 -616.89 244.86 C-606.52 244.85 -596.15 244.86 -585.78 244.88 C-568.33 244.9 -550.88 244.91 -533.42 244.91 C-516.14 244.91 -498.86 244.92 -481.58 244.94 C-480.51 244.94 -479.43 244.94 -478.32 244.94 C-472.85 244.94 -467.38 244.95 -461.91 244.95 C-423.2 244.99 -384.49 245.02 -345.78 245.04 C-336.41 245.04 -327.05 245.04 -317.68 245.05 C-316.51 245.05 -315.35 245.05 -314.15 245.05 C-287.15 245.06 -260.15 245.08 -233.15 245.1 C-231.99 245.1 -230.83 245.1 -229.64 245.1 C-203.22 245.12 -176.79 245.14 -150.37 245.16 C-148.7 245.16 -148.7 245.16 -147 245.17 C-137 245.17 -127 245.18 -117.01 245.19 C-91.03 245.21 -65.06 245.23 -39.09 245.24 C-22.8 245.25 -6.51 245.26 9.78 245.27 C20.08 245.28 30.38 245.28 40.68 245.28 C47.57 245.28 54.46 245.29 61.35 245.29 C65.27 245.3 69.19 245.3 73.11 245.3 C116.37 245.28 116.37 245.28 129.71 248.12 C130.54 248.3 131.37 248.47 132.22 248.65 C141.5 250.74 150.19 253.81 155.99 261.73 C159.28 266.11 162.22 268.07 167.4 269.88 C179.73 274.46 186.07 277.71 191.9 289.81 C194.2 294.21 197.72 295.71 202.15 297.62 C208.54 300.8 211.86 304.71 214.38 311.38 C215.06 313.45 215.72 315.52 216.36 317.61 C218.52 324.31 221.66 328.01 227.38 332.05 C236.05 338.41 237.85 349.16 239.66 359.08 C241.05 368.12 241.42 377.21 241.4 386.34 C241.41 387.89 241.41 387.89 241.41 389.47 C241.42 392.92 241.42 396.36 241.41 399.8 C241.42 402.3 241.42 404.8 241.42 407.3 C241.43 413.45 241.43 419.59 241.43 425.73 C241.43 433.09 241.44 440.45 241.45 447.81 C241.46 465.59 241.47 483.38 241.47 501.17 C241.48 509.59 241.48 518.01 241.48 526.43 C241.5 555.29 241.51 584.14 241.51 613 C241.51 614.81 241.51 616.62 241.51 618.43 C241.51 620.24 241.51 622.06 241.51 623.87 C241.51 627.51 241.51 631.15 241.51 634.79 C241.51 635.69 241.51 636.59 241.51 637.52 C241.52 666.77 241.53 696.01 241.56 725.25 C241.58 756.2 241.6 787.15 241.6 818.1 C241.6 821.5 241.6 824.9 241.6 828.3 C241.6 829.14 241.6 829.98 241.6 830.84 C241.6 844.28 241.61 857.72 241.62 871.16 C241.64 884.69 241.64 898.21 241.63 911.74 C241.63 919.76 241.63 927.78 241.65 935.8 C241.66 941.81 241.65 947.82 241.64 953.84 C241.64 956.25 241.64 958.67 241.65 961.08 C241.69 972.94 241.38 984.64 240 996.43 C239.89 997.39 239.78 998.35 239.67 999.34 C238.43 1008.8 235.67 1017.99 228.27 1024.44 C227.08 1025.08 225.87 1025.68 224.65 1026.25 C219.77 1028.79 218.91 1033.49 217.27 1038.44 C214.09 1047.59 210.79 1053.71 202.21 1058.62 C200.27 1059.44 200.27 1059.44 197.27 1059.44 C197.27 1060.1 197.27 1060.76 197.27 1061.44 C196.61 1061.44 195.95 1061.44 195.27 1061.44 C195.23 1062.1 195.19 1062.76 195.15 1063.44 C193.22 1070.04 188.58 1074.95 182.69 1078.36 C178.68 1080.15 174.48 1081.25 170.23 1082.35 C165.49 1084.1 163.26 1087.31 160.52 1091.38 C153.8 1100.38 144.54 1102.24 133.89 1103.99 C118.54 1106 103.11 1105.72 87.66 1105.7 C83.34 1105.7 79.01 1105.7 74.69 1105.71 C67.12 1105.72 59.56 1105.72 51.99 1105.72 C40.74 1105.71 29.49 1105.72 18.24 1105.73 C-3.03 1105.74 -24.3 1105.74 -45.57 1105.74 C-61.99 1105.74 -78.42 1105.74 -94.85 1105.74 C-97.21 1105.74 -99.57 1105.75 -101.93 1105.75 C-105.49 1105.75 -109.05 1105.75 -112.61 1105.75 C-145.7 1105.76 -178.79 1105.76 -211.88 1105.76 C-213.12 1105.76 -214.37 1105.76 -215.65 1105.76 C-221.97 1105.76 -228.29 1105.76 -234.61 1105.75 C-235.86 1105.75 -237.12 1105.75 -238.41 1105.75 C-240.95 1105.75 -243.49 1105.75 -246.02 1105.75 C-285.5 1105.75 -324.98 1105.76 -364.45 1105.77 C-408.84 1105.79 -453.22 1105.81 -497.6 1105.8 C-502.33 1105.8 -507.07 1105.8 -511.8 1105.8 C-513.55 1105.8 -513.55 1105.8 -515.34 1105.8 C-532.91 1105.8 -550.49 1105.81 -568.06 1105.82 C-588.06 1105.83 -608.06 1105.83 -628.05 1105.82 C-639.23 1105.81 -650.41 1105.81 -661.59 1105.83 C-669.07 1105.83 -676.56 1105.83 -684.04 1105.82 C-688.29 1105.81 -692.54 1105.81 -696.8 1105.82 C-711.34 1105.86 -725.82 1105.88 -740.28 1104.16 C-741.21 1104.06 -742.14 1103.95 -743.09 1103.84 C-753.09 1102.45 -761.94 1099.12 -768.73 1091.44 C-769.18 1090.39 -769.63 1089.33 -770.1 1088.25 C-772.7 1083.76 -776.97 1083.02 -781.73 1081.44 C-790.23 1078.53 -796.89 1075.04 -801.73 1067.19 C-802.73 1064.44 -802.73 1064.44 -802.73 1061.44 C-803.39 1061.44 -804.05 1061.44 -804.73 1061.44 C-804.73 1060.78 -804.73 1060.12 -804.73 1059.44 C-805.43 1059.36 -806.13 1059.27 -806.85 1059.19 C-812.88 1057.62 -817.42 1053.64 -820.73 1048.44 C-823.15 1043.43 -824.77 1038.31 -826.16 1032.94 C-826.83 1030.48 -826.83 1030.48 -827.73 1028.44 C-829.94 1027.13 -829.94 1027.13 -832.73 1026.44 C-841.72 1020.15 -844.55 1013.52 -846.41 1003.06 C-848.13 993.08 -848.88 983.22 -848.86 973.09 C-848.86 971.98 -848.86 970.88 -848.86 969.74 C-848.87 966.04 -848.86 962.33 -848.86 958.63 C-848.86 955.95 -848.86 953.27 -848.87 950.59 C-848.87 944.76 -848.87 938.93 -848.87 933.1 C-848.87 924.43 -848.88 915.75 -848.88 907.08 C-848.89 890.69 -848.89 874.3 -848.89 857.91 C-848.89 845.24 -848.9 832.57 -848.9 819.9 C-848.9 816.26 -848.9 812.61 -848.9 808.96 C-848.9 807.6 -848.9 807.6 -848.9 806.21 C-848.91 780.69 -848.91 755.17 -848.91 729.65 C-848.91 728.68 -848.91 727.72 -848.91 726.73 C-848.91 721.85 -848.91 716.98 -848.91 712.1 C-848.91 710.65 -848.91 710.65 -848.91 709.17 C-848.91 707.21 -848.91 705.25 -848.91 703.29 C-848.91 672.86 -848.92 642.43 -848.93 611.99 C-848.95 577.78 -848.96 543.56 -848.96 509.34 C-848.96 505.69 -848.96 502.03 -848.96 498.38 C-848.96 497.48 -848.96 496.58 -848.96 495.65 C-848.96 481.22 -848.96 466.78 -848.97 452.35 C-848.98 437.82 -848.98 423.28 -848.97 408.75 C-848.97 400.14 -848.97 391.52 -848.98 382.91 C-848.99 377.13 -848.99 371.35 -848.98 365.57 C-848.97 362.3 -848.97 359.02 -848.98 355.74 C-849.01 342.62 -848.75 329.59 -847.84 316.49 C-847.76 315.38 -847.68 314.26 -847.6 313.11 C-845.36 283.97 -845.36 283.97 -834.48 274.25 C-832.58 272.74 -830.89 271.52 -828.73 270.44 C-827.95 268.5 -827.95 268.5 -827.35 266.12 C-827.09 265.22 -826.83 264.31 -826.56 263.38 C-826.29 262.41 -826.01 261.44 -825.73 260.44 C-821.88 247.04 -816.14 234.07 -803.78 226.85 C-800.76 224.77 -798.63 222.15 -796.31 219.34 C-794.27 216.88 -791.99 214.7 -789.73 212.44 C-789.27 211.85 -788.82 211.27 -788.36 210.67 C-780.73 201.01 -770.82 195.81 -759.23 192.44 C-752.01 190.38 -752.01 190.38 -747.04 184.94 C-746.26 183.44 -745.49 181.94 -744.73 180.44 C-738.26 171.97 -725.76 170.29 -715.93 168.16 C-714.95 167.94 -713.96 167.73 -712.94 167.51 C-711 167.09 -709.04 166.69 -707.09 166.31 C-700.51 164.97 -700.51 164.97 -695.73 160.44 C-695.22 159.79 -694.71 159.14 -694.19 158.47 C-693.69 157.82 -693.18 157.17 -692.66 156.5 C-680.93 143.18 -656.83 143.67 -640.26 141.64 C-637.85 141.34 -635.45 141.03 -633.04 140.72 C-632.32 140.63 -631.6 140.55 -630.86 140.46 C-622.97 139.43 -617.32 137.31 -611.73 131.44 C-597.03 119.75 -573.74 119.08 -555.79 117.5 C-544.09 116.4 -530.99 114.91 -522.48 106.14 C-509.9 93.95 -486.19 94.08 -469.98 92.38 C-466.55 92.01 -463.13 91.64 -459.71 91.26 C-457.59 91.03 -455.48 90.81 -453.36 90.59 C-440.11 89.35 -440.11 89.35 -429.23 82.56 C-416.44 70.29 -396.73 69.47 -379.98 67.5 C-370.26 66.35 -360.61 65.08 -351.04 63 C-350.16 62.82 -349.27 62.64 -348.36 62.45 C-343.06 61.22 -340.37 59.67 -336.73 55.44 C-324.23 44.54 -304.8 43.13 -288.94 41.66 C-288.27 41.6 -287.59 41.54 -286.9 41.48 C-283.59 41.17 -280.27 40.9 -276.95 40.65 C-263.61 39.56 -252.59 37.74 -242.37 28.62 C-229.05 17.63 -207.48 17.31 -191.04 15.38 C-189.59 15.2 -188.14 15.03 -186.7 14.86 C-185.99 14.78 -185.29 14.69 -184.56 14.61 C-181.29 14.22 -178.01 13.83 -174.73 13.44 C-173.73 13.32 -172.74 13.2 -171.71 13.08 C-162.35 11.94 -156.31 10.44 -149.73 3.44 C-135.58 -7.84 -113.14 -8.73 -95.73 -9.56 C-94.83 -9.61 -93.93 -9.65 -93 -9.69 C-14.79 -13.38 -14.79 -13.38 0 0 Z M-711.73 316.44 C-714.03 318.92 -714.03 318.92 -715.25 320.76 C-717.94 323.82 -721.54 325.65 -725.01 327.73 C-727.77 329.38 -727.77 329.38 -730.21 331.49 C-732.9 333.57 -735.38 334.75 -738.54 336 C-739.59 336.43 -740.63 336.86 -741.71 337.3 C-744.73 338.44 -744.73 338.44 -747.18 339.14 C-749.57 339.77 -749.57 339.77 -752.73 341.44 C-754.17 344.27 -754.95 346.42 -755.73 349.44 C-757.88 356.64 -760.51 363.5 -763.66 370.31 C-763.99 371.03 -764.31 371.74 -764.65 372.47 C-767.32 378.14 -770.38 382.63 -775.41 386.5 C-780.94 391.13 -780.62 399.03 -781.25 405.75 C-783.55 431.77 -782.87 458.09 -782.86 484.18 C-782.85 490.19 -782.86 496.2 -782.86 502.2 C-782.87 513.25 -782.87 524.3 -782.86 535.35 C-782.86 545.57 -782.86 555.78 -782.86 565.99 C-782.86 566.67 -782.86 567.35 -782.86 568.05 C-782.86 570.82 -782.86 573.58 -782.86 576.35 C-782.86 602.21 -782.86 628.07 -782.86 653.93 C-782.85 676.84 -782.85 699.76 -782.86 722.68 C-782.86 748.5 -782.86 774.32 -782.86 800.15 C-782.86 802.9 -782.86 805.66 -782.86 808.42 C-782.86 809.1 -782.86 809.78 -782.86 810.48 C-782.86 820.68 -782.86 830.88 -782.86 841.08 C-782.87 852.69 -782.86 864.3 -782.86 875.91 C-782.86 881.83 -782.86 887.74 -782.86 893.65 C-786.9 940.04 -786.9 940.04 -774.97 981.77 C-772.93 983.66 -770.78 985.37 -768.58 987.07 C-762.95 991.75 -761.11 997.8 -759.35 1004.69 C-758.11 1009 -756.6 1011.48 -753.02 1014.2 C-749.14 1016.29 -744.97 1017.34 -740.75 1018.52 C-734.22 1020.5 -730.62 1024.42 -726.44 1029.54 C-719.41 1037.35 -706.57 1038.23 -696.52 1038.83 C-694.68 1038.91 -692.84 1038.98 -691 1039.05 C-689.97 1039.08 -688.94 1039.12 -687.89 1039.16 C-674.86 1039.6 -661.84 1039.58 -648.81 1039.57 C-644.98 1039.56 -641.16 1039.57 -637.34 1039.57 C-630.66 1039.57 -623.99 1039.57 -617.31 1039.57 C-607.38 1039.57 -597.46 1039.57 -587.53 1039.57 C-569.79 1039.58 -552.06 1039.58 -534.32 1039.57 C-518.8 1039.57 -503.27 1039.57 -487.75 1039.57 C-486.2 1039.57 -486.2 1039.57 -484.63 1039.57 C-480.44 1039.57 -476.25 1039.57 -472.06 1039.57 C-432.8 1039.58 -393.55 1039.57 -354.3 1039.57 C-319.46 1039.56 -284.63 1039.56 -249.8 1039.57 C-210.61 1039.57 -171.43 1039.58 -132.25 1039.57 C-128.06 1039.57 -123.88 1039.57 -119.7 1039.57 C-118.16 1039.57 -118.16 1039.57 -116.58 1039.57 C-101.07 1039.57 -85.57 1039.57 -70.06 1039.57 C-52.41 1039.58 -34.77 1039.58 -17.13 1039.57 C-7.27 1039.57 2.59 1039.57 12.45 1039.57 C19.05 1039.57 25.66 1039.57 32.26 1039.57 C36.01 1039.57 39.76 1039.56 43.51 1039.57 C56.86 1039.58 70.21 1039.54 83.55 1039.04 C84.49 1039.01 85.43 1038.97 86.39 1038.94 C97.93 1038.43 110.68 1037.8 119.27 1029.44 C120.41 1028.11 121.52 1026.76 122.59 1025.38 C127.51 1019.63 133.31 1017.93 140.46 1016.12 C144.79 1014.84 147.31 1013.33 150.04 1009.72 C152.11 1005.89 153.12 1001.78 154.28 997.61 C156.37 990.92 159.13 986.81 165.27 983.44 C174.41 974.13 174.46 959.59 174.87 947.17 C174.91 946.13 174.95 945.09 174.99 944.01 C175.36 933.37 175.41 922.73 175.4 912.08 C175.4 909.94 175.4 907.81 175.41 905.67 C175.41 899.87 175.41 894.08 175.4 888.28 C175.4 882 175.41 875.72 175.41 869.44 C175.41 857.87 175.41 846.31 175.41 834.74 C175.41 824.05 175.41 813.37 175.41 802.68 C175.41 801.97 175.41 801.25 175.41 800.52 C175.41 797.63 175.41 794.74 175.41 791.85 C175.41 764.8 175.41 737.75 175.4 710.69 C175.4 686.71 175.4 662.72 175.4 638.74 C175.41 611.73 175.41 584.72 175.41 557.72 C175.41 554.83 175.41 551.95 175.41 549.06 C175.41 548.35 175.41 547.64 175.41 546.91 C175.41 536.24 175.41 525.56 175.41 514.88 C175.41 502.73 175.41 490.58 175.41 478.43 C175.4 472.24 175.4 466.05 175.41 459.86 C175.41 454.18 175.41 448.5 175.4 442.81 C175.4 440.77 175.4 438.73 175.4 436.69 C175.42 426.12 175.28 415.56 174.86 404.99 C174.83 404.03 174.8 403.08 174.76 402.1 C174.43 394.47 174.03 386.37 168.48 380.56 C167.13 379.43 165.76 378.34 164.36 377.28 C160.35 373.75 157.94 369.01 155.27 364.44 C154.57 363.37 153.87 362.29 153.15 361.19 C150.74 356.96 149.45 352.22 148.02 347.59 C146.8 343.65 146.8 343.65 144.27 340.44 C142.12 339.78 139.95 339.18 137.77 338.62 C131.45 336.87 125.95 334.71 120.27 331.44 C118.88 330.65 118.88 330.65 117.46 329.84 C112.8 327.06 109.01 324.43 105.59 320.19 C101.45 315.17 97.67 313.8 91.26 313.12 C83.02 312.54 74.84 312.3 66.58 312.31 C65.27 312.31 63.96 312.31 62.61 312.31 C59 312.3 55.38 312.31 51.77 312.31 C47.84 312.31 43.9 312.31 39.96 312.31 C33.07 312.3 26.17 312.3 19.28 312.3 C9.03 312.31 -1.22 312.31 -11.48 312.3 C-29.79 312.3 -48.1 312.3 -66.41 312.3 C-82.43 312.3 -98.45 312.3 -114.48 312.3 C-115.54 312.3 -116.6 312.3 -117.7 312.3 C-122.01 312.3 -126.33 312.3 -130.65 312.3 C-171.13 312.3 -211.61 312.3 -252.09 312.31 C-288.05 312.31 -324 312.31 -359.96 312.31 C-400.37 312.3 -440.78 312.3 -481.19 312.3 C-485.49 312.3 -489.8 312.3 -494.11 312.3 C-495.7 312.3 -495.7 312.3 -497.32 312.3 C-513.34 312.31 -529.35 312.3 -545.36 312.3 C-563.57 312.3 -581.78 312.3 -599.99 312.3 C-610.18 312.31 -620.37 312.31 -630.55 312.3 C-637.36 312.3 -644.17 312.3 -650.98 312.31 C-654.85 312.31 -658.73 312.31 -662.61 312.31 C-666.79 312.3 -670.97 312.31 -675.16 312.31 C-676.95 312.31 -676.95 312.31 -678.78 312.3 C-695.67 311.98 -695.67 311.98 -711.73 316.44 Z " fill="#000000" transform="translate(943.7265625,79.5625)"/>
<path d="M0 0 C2.17 0.01 4.34 0 6.52 -0.01 C34.2 -0.02 34.2 -0.02 43.62 7.74 C46.28 10.66 47.85 13.48 49.3 17.13 C51.6 22.2 56.04 23.82 60.76 26.36 C66.89 30.08 70.2 35.77 72.15 42.57 C76.04 61.57 78.02 93.61 67.21 110.41 C64.07 114.38 61.19 116.52 56.55 118.51 C51.34 120.83 50.1 123.52 47.94 128.63 C44.84 134.78 39.38 138.24 33.01 140.49 C28.54 141.71 23.98 141.99 19.36 142.32 C18.39 142.4 17.43 142.48 16.43 142.57 C5.93 143.4 -4.4 143.23 -14.89 142.38 C-15.85 142.32 -16.81 142.26 -17.81 142.19 C-25.57 141.57 -32.73 140.02 -38.91 135.05 C-39.5 134.34 -40.09 133.62 -40.7 132.88 C-41.67 131.7 -41.67 131.7 -42.67 130.51 C-44.19 128.32 -45.2 126.33 -46.2 123.88 C-48.2 119.35 -51.49 118.32 -55.85 116.4 C-61.76 113.37 -64.69 108.23 -66.78 102.12 C-70.26 89.37 -69.6 75.26 -69.32 62.13 C-69.31 61.12 -69.31 61.12 -69.29 60.08 C-69.02 49.26 -68.1 36.82 -60.23 28.59 C-57.9 26.81 -55.46 25.65 -52.82 24.38 C-47.15 21.53 -45.32 18.29 -42.63 12.69 C-39.58 6.73 -34.34 4.44 -28.38 1.93 C-19.19 -0.47 -9.44 -0.03 0 0 Z " fill="#000000" transform="translate(983.32470703125,683.86962890625)"/>
</svg>
